<?xml version="1.0" encoding="UTF-8" standalone="no"?>
<!DOCTYPE svg PUBLIC "-//W3C//DTD SVG 1.1//EN"
 "http://www.w3.org/Graphics/SVG/1.1/DTD/svg11.dtd">
<!-- Generated by graphviz version 2.38.0 (20140413.2041)
 -->
<!-- Title: network_graph Pages: 1 -->
<svg width="1322pt" height="2900pt"
 viewBox="0.00 0.00 1322.03 2900.00" xmlns="http://www.w3.org/2000/svg" xmlns:xlink="http://www.w3.org/1999/xlink">
<g id="graph0" class="graph" transform="scale(1 1) rotate(0) translate(4 2896)">
<title>network_graph</title>
<polygon fill="white" stroke="none" points="-4,4 -4,-2896 1318.03,-2896 1318.03,4 -4,4"/>
<!-- Combine1404 -->
<g id="node1" class="node"><title>Combine1404</title>
<polygon fill="lightgray" stroke="black" stroke-width="4" points="349,-191 255,-191 255,-119 349,-119 349,-191"/>
<text text-anchor="middle" x="302" y="-151.9" font-family="Times New Roman,serif" font-size="12.00">Combine</text>
</g>
<!-- Reshape1332_Output_0 -->
<g id="node7" class="node"><title>Reshape1332_Output_0</title>
<polygon fill="lightgray" stroke="black" stroke-width="4" points="70.6333,-0.0986735 73.7009,-0.29575 76.7368,-0.590689 79.7286,-0.982683 82.6641,-1.47066 85.5316,-2.05327 88.3198,-2.72894 91.0179,-3.49579 93.6155,-4.35174 96.103,-5.29443 98.4715,-6.32129 100.713,-7.42949 102.819,-8.616 104.784,-9.87757 106.602,-11.2107 108.268,-12.6119 109.777,-14.0771 111.126,-15.6024 112.314,-17.1836 113.338,-18.8164 114.198,-20.4963 114.895,-22.2187 115.428,-23.9788 115.799,-25.7719 116.012,-27.5931 116.07,-29.4373 115.975,-31.2994 115.733,-33.1745 115.348,-35.0573 114.826,-36.9427 114.172,-38.8255 113.392,-40.7006 112.493,-42.5627 111.481,-44.4069 110.364,-46.2281 109.147,-48.0212 107.837,-49.7813 106.442,-51.5037 104.968,-53.1836 103.421,-54.8164 101.809,-56.3976 100.136,-57.9229 98.4099,-59.3881 96.6351,-60.7893 94.8173,-62.1224 92.9614,-63.384 91.0722,-64.5705 89.1538,-65.6787 87.2102,-66.7056 85.245,-67.6483 83.2615,-68.5042 81.2625,-69.2711 79.2507,-69.9467 77.2283,-70.5293 75.1975,-71.0173 73.1601,-71.4093 71.1177,-71.7042 69.072,-71.9013 67.0242,-72 64.9758,-72 62.928,-71.9013 60.8823,-71.7042 58.8399,-71.4093 56.8025,-71.0173 54.7717,-70.5293 52.7493,-69.9467 50.7375,-69.2711 48.7385,-68.5042 46.755,-67.6483 44.7898,-66.7056 42.8462,-65.6787 40.9278,-64.5705 39.0386,-63.384 37.1827,-62.1224 35.3649,-60.7893 33.5901,-59.3881 31.8637,-57.9229 30.1912,-56.3976 28.5786,-54.8164 27.0321,-53.1836 25.5579,-51.5037 24.1628,-49.7813 22.8533,-48.0212 21.6363,-46.2281 20.5186,-44.4069 19.5069,-42.5627 18.608,-40.7006 17.8284,-38.8255 17.1743,-36.9427 16.652,-35.0573 16.267,-33.1745 16.0248,-31.2994 15.9302,-29.4373 15.9875,-27.5931 16.2005,-25.7719 16.5723,-23.9788 17.1055,-22.2187 17.8016,-20.4963 18.6616,-18.8164 19.6859,-17.1836 20.8735,-15.6024 22.2232,-14.0771 23.7324,-12.6119 25.398,-11.2107 27.2158,-9.87757 29.1809,-8.616 31.2873,-7.42949 33.5285,-6.32129 35.897,-5.29443 38.3845,-4.35174 40.9821,-3.49579 43.6802,-2.72894 46.4684,-2.05327 49.3359,-1.47066 52.2714,-0.982683 55.2632,-0.590689 58.2991,-0.29575 61.3667,-0.0986735 64.4534,-3.55271e-013 67.5466,-3.69482e-013 70.6333,-0.0986735"/>
<text text-anchor="middle" x="66" y="-25.9" font-family="Times New Roman,serif" font-size="12.00">[#](1000,)</text>
</g>
<!-- Combine1404&#45;&gt;Reshape1332_Output_0 -->
<g id="edge6" class="edge"><title>Combine1404&#45;&gt;Reshape1332_Output_0</title>
<path fill="none" stroke="black" d="M254.786,-133.694C218.762,-117.825 168.152,-94.72 125,-72 119.802,-69.263 114.416,-66.2813 109.108,-63.2508"/>
<polygon fill="black" stroke="black" points="110.702,-60.1293 100.296,-58.1391 107.19,-66.1843 110.702,-60.1293"/>
<text text-anchor="middle" x="201" y="-93" font-family="Times New Roman,serif" font-size="10.00">[#](1000,)</text>
</g>
<!-- Block1346_Output_0 -->
<g id="node8" class="node"><title>Block1346_Output_0</title>
<polygon fill="lightgray" stroke="black" stroke-width="4" points="188.633,-0.0986735 191.701,-0.29575 194.737,-0.590689 197.729,-0.982683 200.664,-1.47066 203.532,-2.05327 206.32,-2.72894 209.018,-3.49579 211.615,-4.35174 214.103,-5.29443 216.471,-6.32129 218.713,-7.42949 220.819,-8.616 222.784,-9.87757 224.602,-11.2107 226.268,-12.6119 227.777,-14.0771 229.126,-15.6024 230.314,-17.1836 231.338,-18.8164 232.198,-20.4963 232.895,-22.2187 233.428,-23.9788 233.799,-25.7719 234.012,-27.5931 234.07,-29.4373 233.975,-31.2994 233.733,-33.1745 233.348,-35.0573 232.826,-36.9427 232.172,-38.8255 231.392,-40.7006 230.493,-42.5627 229.481,-44.4069 228.364,-46.2281 227.147,-48.0212 225.837,-49.7813 224.442,-51.5037 222.968,-53.1836 221.421,-54.8164 219.809,-56.3976 218.136,-57.9229 216.41,-59.3881 214.635,-60.7893 212.817,-62.1224 210.961,-63.384 209.072,-64.5705 207.154,-65.6787 205.21,-66.7056 203.245,-67.6483 201.261,-68.5042 199.262,-69.2711 197.251,-69.9467 195.228,-70.5293 193.197,-71.0173 191.16,-71.4093 189.118,-71.7042 187.072,-71.9013 185.024,-72 182.976,-72 180.928,-71.9013 178.882,-71.7042 176.84,-71.4093 174.803,-71.0173 172.772,-70.5293 170.749,-69.9467 168.738,-69.2711 166.739,-68.5042 164.755,-67.6483 162.79,-66.7056 160.846,-65.6787 158.928,-64.5705 157.039,-63.384 155.183,-62.1224 153.365,-60.7893 151.59,-59.3881 149.864,-57.9229 148.191,-56.3976 146.579,-54.8164 145.032,-53.1836 143.558,-51.5037 142.163,-49.7813 140.853,-48.0212 139.636,-46.2281 138.519,-44.4069 137.507,-42.5627 136.608,-40.7006 135.828,-38.8255 135.174,-36.9427 134.652,-35.0573 134.267,-33.1745 134.025,-31.2994 133.93,-29.4373 133.988,-27.5931 134.201,-25.7719 134.572,-23.9788 135.105,-22.2187 135.802,-20.4963 136.662,-18.8164 137.686,-17.1836 138.874,-15.6024 140.223,-14.0771 141.732,-12.6119 143.398,-11.2107 145.216,-9.87757 147.181,-8.616 149.287,-7.42949 151.529,-6.32129 153.897,-5.29443 156.385,-4.35174 158.982,-3.49579 161.68,-2.72894 164.468,-2.05327 167.336,-1.47066 170.271,-0.982683 173.263,-0.590689 176.299,-0.29575 179.367,-0.0986735 182.453,-3.55271e-013 185.547,-3.69482e-013 188.633,-0.0986735"/>
<text text-anchor="middle" x="184" y="-39.4" font-family="Times New Roman,serif" font-size="12.00">model_output</text>
<text text-anchor="middle" x="184" y="-26.4" font-family="Times New Roman,serif" font-size="12.00">[#](1,)</text>
</g>
<!-- Combine1404&#45;&gt;Block1346_Output_0 -->
<g id="edge7" class="edge"><title>Combine1404&#45;&gt;Block1346_Output_0</title>
<path fill="none" stroke="black" d="M266.596,-118.896C251.194,-103.625 233.224,-85.8072 217.986,-70.6982"/>
<polygon fill="black" stroke="black" points="220.314,-68.0772 210.748,-63.5217 215.385,-73.048 220.314,-68.0772"/>
<text text-anchor="middle" x="258.5" y="-93" font-family="Times New Roman,serif" font-size="10.00">[#](1,)</text>
</g>
<!-- ReduceElements1401_Output_0 -->
<g id="node9" class="node"><title>ReduceElements1401_Output_0</title>
<polygon fill="lightgray" stroke="black" stroke-width="4" points="306.633,-0.0986735 309.701,-0.29575 312.737,-0.590689 315.729,-0.982683 318.664,-1.47066 321.532,-2.05327 324.32,-2.72894 327.018,-3.49579 329.615,-4.35174 332.103,-5.29443 334.471,-6.32129 336.713,-7.42949 338.819,-8.616 340.784,-9.87757 342.602,-11.2107 344.268,-12.6119 345.777,-14.0771 347.126,-15.6024 348.314,-17.1836 349.338,-18.8164 350.198,-20.4963 350.895,-22.2187 351.428,-23.9788 351.799,-25.7719 352.012,-27.5931 352.07,-29.4373 351.975,-31.2994 351.733,-33.1745 351.348,-35.0573 350.826,-36.9427 350.172,-38.8255 349.392,-40.7006 348.493,-42.5627 347.481,-44.4069 346.364,-46.2281 345.147,-48.0212 343.837,-49.7813 342.442,-51.5037 340.968,-53.1836 339.421,-54.8164 337.809,-56.3976 336.136,-57.9229 334.41,-59.3881 332.635,-60.7893 330.817,-62.1224 328.961,-63.384 327.072,-64.5705 325.154,-65.6787 323.21,-66.7056 321.245,-67.6483 319.261,-68.5042 317.262,-69.2711 315.251,-69.9467 313.228,-70.5293 311.197,-71.0173 309.16,-71.4093 307.118,-71.7042 305.072,-71.9013 303.024,-72 300.976,-72 298.928,-71.9013 296.882,-71.7042 294.84,-71.4093 292.803,-71.0173 290.772,-70.5293 288.749,-69.9467 286.738,-69.2711 284.739,-68.5042 282.755,-67.6483 280.79,-66.7056 278.846,-65.6787 276.928,-64.5705 275.039,-63.384 273.183,-62.1224 271.365,-60.7893 269.59,-59.3881 267.864,-57.9229 266.191,-56.3976 264.579,-54.8164 263.032,-53.1836 261.558,-51.5037 260.163,-49.7813 258.853,-48.0212 257.636,-46.2281 256.519,-44.4069 255.507,-42.5627 254.608,-40.7006 253.828,-38.8255 253.174,-36.9427 252.652,-35.0573 252.267,-33.1745 252.025,-31.2994 251.93,-29.4373 251.988,-27.5931 252.201,-25.7719 252.572,-23.9788 253.105,-22.2187 253.802,-20.4963 254.662,-18.8164 255.686,-17.1836 256.874,-15.6024 258.223,-14.0771 259.732,-12.6119 261.398,-11.2107 263.216,-9.87757 265.181,-8.616 267.287,-7.42949 269.529,-6.32129 271.897,-5.29443 274.385,-4.35174 276.982,-3.49579 279.68,-2.72894 282.468,-2.05327 285.336,-1.47066 288.271,-0.982683 291.263,-0.590689 294.299,-0.29575 297.367,-0.0986735 300.453,-3.55271e-013 303.547,-3.69482e-013 306.633,-0.0986735"/>
<text text-anchor="middle" x="302" y="-39.4" font-family="Times New Roman,serif" font-size="12.00">aggregateLoss</text>
<text text-anchor="middle" x="302" y="-26.4" font-family="Times New Roman,serif" font-size="12.00">()</text>
</g>
<!-- Combine1404&#45;&gt;ReduceElements1401_Output_0 -->
<g id="edge8" class="edge"><title>Combine1404&#45;&gt;ReduceElements1401_Output_0</title>
<path fill="none" stroke="black" d="M302,-118.896C302,-107.327 302,-94.2965 302,-82.0893"/>
<polygon fill="black" stroke="black" points="305.5,-82.079 302,-72.0791 298.5,-82.0791 305.5,-82.079"/>
<text text-anchor="middle" x="305.5" y="-93" font-family="Times New Roman,serif" font-size="10.00">()</text>
</g>
<!-- Block1367_Output_0 -->
<g id="node10" class="node"><title>Block1367_Output_0</title>
<polygon fill="lightgray" stroke="black" stroke-width="4" points="424.633,-0.0986735 427.701,-0.29575 430.737,-0.590689 433.729,-0.982683 436.664,-1.47066 439.532,-2.05327 442.32,-2.72894 445.018,-3.49579 447.615,-4.35174 450.103,-5.29443 452.471,-6.32129 454.713,-7.42949 456.819,-8.616 458.784,-9.87757 460.602,-11.2107 462.268,-12.6119 463.777,-14.0771 465.126,-15.6024 466.314,-17.1836 467.338,-18.8164 468.198,-20.4963 468.895,-22.2187 469.428,-23.9788 469.799,-25.7719 470.012,-27.5931 470.07,-29.4373 469.975,-31.2994 469.733,-33.1745 469.348,-35.0573 468.826,-36.9427 468.172,-38.8255 467.392,-40.7006 466.493,-42.5627 465.481,-44.4069 464.364,-46.2281 463.147,-48.0212 461.837,-49.7813 460.442,-51.5037 458.968,-53.1836 457.421,-54.8164 455.809,-56.3976 454.136,-57.9229 452.41,-59.3881 450.635,-60.7893 448.817,-62.1224 446.961,-63.384 445.072,-64.5705 443.154,-65.6787 441.21,-66.7056 439.245,-67.6483 437.261,-68.5042 435.262,-69.2711 433.251,-69.9467 431.228,-70.5293 429.197,-71.0173 427.16,-71.4093 425.118,-71.7042 423.072,-71.9013 421.024,-72 418.976,-72 416.928,-71.9013 414.882,-71.7042 412.84,-71.4093 410.803,-71.0173 408.772,-70.5293 406.749,-69.9467 404.738,-69.2711 402.739,-68.5042 400.755,-67.6483 398.79,-66.7056 396.846,-65.6787 394.928,-64.5705 393.039,-63.384 391.183,-62.1224 389.365,-60.7893 387.59,-59.3881 385.864,-57.9229 384.191,-56.3976 382.579,-54.8164 381.032,-53.1836 379.558,-51.5037 378.163,-49.7813 376.853,-48.0212 375.636,-46.2281 374.519,-44.4069 373.507,-42.5627 372.608,-40.7006 371.828,-38.8255 371.174,-36.9427 370.652,-35.0573 370.267,-33.1745 370.025,-31.2994 369.93,-29.4373 369.988,-27.5931 370.201,-25.7719 370.572,-23.9788 371.105,-22.2187 371.802,-20.4963 372.662,-18.8164 373.686,-17.1836 374.874,-15.6024 376.223,-14.0771 377.732,-12.6119 379.398,-11.2107 381.216,-9.87757 383.181,-8.616 385.287,-7.42949 387.529,-6.32129 389.897,-5.29443 392.385,-4.35174 394.982,-3.49579 397.68,-2.72894 400.468,-2.05327 403.336,-1.47066 406.271,-0.982683 409.263,-0.590689 412.299,-0.29575 415.367,-0.0986735 418.453,-3.55271e-013 421.547,-3.69482e-013 424.633,-0.0986735"/>
<text text-anchor="middle" x="420" y="-25.9" font-family="Times New Roman,serif" font-size="12.00">[#](1,)</text>
</g>
<!-- Combine1404&#45;&gt;Block1367_Output_0 -->
<g id="edge9" class="edge"><title>Combine1404&#45;&gt;Block1367_Output_0</title>
<path fill="none" stroke="black" d="M337.404,-118.896C352.806,-103.625 370.776,-85.8072 386.014,-70.6982"/>
<polygon fill="black" stroke="black" points="388.615,-73.048 393.252,-63.5217 383.686,-68.0772 388.615,-73.048"/>
<text text-anchor="middle" x="376.5" y="-93" font-family="Times New Roman,serif" font-size="10.00">[#](1,)</text>
</g>
<!-- ReduceElements1398_Output_0 -->
<g id="node11" class="node"><title>ReduceElements1398_Output_0</title>
<polygon fill="lightgray" stroke="black" stroke-width="4" points="542.633,-0.0986735 545.701,-0.29575 548.737,-0.590689 551.729,-0.982683 554.664,-1.47066 557.532,-2.05327 560.32,-2.72894 563.018,-3.49579 565.615,-4.35174 568.103,-5.29443 570.471,-6.32129 572.713,-7.42949 574.819,-8.616 576.784,-9.87757 578.602,-11.2107 580.268,-12.6119 581.777,-14.0771 583.126,-15.6024 584.314,-17.1836 585.338,-18.8164 586.198,-20.4963 586.895,-22.2187 587.428,-23.9788 587.799,-25.7719 588.012,-27.5931 588.07,-29.4373 587.975,-31.2994 587.733,-33.1745 587.348,-35.0573 586.826,-36.9427 586.172,-38.8255 585.392,-40.7006 584.493,-42.5627 583.481,-44.4069 582.364,-46.2281 581.147,-48.0212 579.837,-49.7813 578.442,-51.5037 576.968,-53.1836 575.421,-54.8164 573.809,-56.3976 572.136,-57.9229 570.41,-59.3881 568.635,-60.7893 566.817,-62.1224 564.961,-63.384 563.072,-64.5705 561.154,-65.6787 559.21,-66.7056 557.245,-67.6483 555.261,-68.5042 553.262,-69.2711 551.251,-69.9467 549.228,-70.5293 547.197,-71.0173 545.16,-71.4093 543.118,-71.7042 541.072,-71.9013 539.024,-72 536.976,-72 534.928,-71.9013 532.882,-71.7042 530.84,-71.4093 528.803,-71.0173 526.772,-70.5293 524.749,-69.9467 522.738,-69.2711 520.739,-68.5042 518.755,-67.6483 516.79,-66.7056 514.846,-65.6787 512.928,-64.5705 511.039,-63.384 509.183,-62.1224 507.365,-60.7893 505.59,-59.3881 503.864,-57.9229 502.191,-56.3976 500.579,-54.8164 499.032,-53.1836 497.558,-51.5037 496.163,-49.7813 494.853,-48.0212 493.636,-46.2281 492.519,-44.4069 491.507,-42.5627 490.608,-40.7006 489.828,-38.8255 489.174,-36.9427 488.652,-35.0573 488.267,-33.1745 488.025,-31.2994 487.93,-29.4373 487.988,-27.5931 488.201,-25.7719 488.572,-23.9788 489.105,-22.2187 489.802,-20.4963 490.662,-18.8164 491.686,-17.1836 492.874,-15.6024 494.223,-14.0771 495.732,-12.6119 497.398,-11.2107 499.216,-9.87757 501.181,-8.616 503.287,-7.42949 505.529,-6.32129 507.897,-5.29443 510.385,-4.35174 512.982,-3.49579 515.68,-2.72894 518.468,-2.05327 521.336,-1.47066 524.271,-0.982683 527.263,-0.590689 530.299,-0.29575 533.367,-0.0986735 536.453,-3.55271e-013 539.547,-3.69482e-013 542.633,-0.0986735"/>
<text text-anchor="middle" x="538" y="-39.4" font-family="Times New Roman,serif" font-size="12.00">aggregateEvalMetric</text>
<text text-anchor="middle" x="538" y="-26.4" font-family="Times New Roman,serif" font-size="12.00">()</text>
</g>
<!-- Combine1404&#45;&gt;ReduceElements1398_Output_0 -->
<g id="edge10" class="edge"><title>Combine1404&#45;&gt;ReduceElements1398_Output_0</title>
<path fill="none" stroke="black" d="M349.214,-133.694C385.238,-117.825 435.848,-94.72 479,-72 484.198,-69.263 489.584,-66.2813 494.892,-63.2508"/>
<polygon fill="black" stroke="black" points="496.81,-66.1843 503.704,-58.1391 493.298,-60.1293 496.81,-66.1843"/>
<text text-anchor="middle" x="443.5" y="-93" font-family="Times New Roman,serif" font-size="10.00">()</text>
</g>
<!-- Reshape1332 -->
<g id="node2" class="node"><title>Reshape1332</title>
<polygon fill="lightgray" stroke="black" stroke-width="4" points="178,-537.5 122,-537.5 122,-494.5 178,-494.5 178,-537.5"/>
<text text-anchor="middle" x="150" y="-512.9" font-family="Times New Roman,serif" font-size="12.00">Reshape</text>
</g>
<!-- Reshape1332&#45;&gt;Combine1404 -->
<g id="edge1" class="edge"><title>Reshape1332&#45;&gt;Combine1404</title>
<path fill="none" stroke="black" d="M136.496,-494.24C113.907,-456.776 73.1702,-375.654 97,-310 120.948,-244.02 193.172,-200.893 245.114,-177.5"/>
<polygon fill="black" stroke="black" points="246.806,-180.58 254.561,-173.36 243.997,-174.168 246.806,-180.58"/>
<text text-anchor="middle" x="145.5" y="-324" font-family="Times New Roman,serif" font-size="10.00">Reshape1332_Output_0</text>
<text text-anchor="middle" x="145.5" y="-313" font-family="Times New Roman,serif" font-size="10.00">[#](1000,)</text>
</g>
<!-- Block1346 -->
<g id="node3" class="node"><title>Block1346</title>
<polygon fill="lightgray" stroke="black" stroke-width="4" points="498,-422 404,-422 404,-350 498,-350 498,-422"/>
<text text-anchor="middle" x="451" y="-389.4" font-family="Times New Roman,serif" font-size="12.00">CrossEntropyWithSoftmax</text>
<text text-anchor="middle" x="451" y="-376.4" font-family="Times New Roman,serif" font-size="12.00">model_output()</text>
</g>
<!-- Reshape1332&#45;&gt;Block1346 -->
<g id="edge51" class="edge"><title>Reshape1332&#45;&gt;Block1346</title>
<path fill="none" stroke="black" d="M178.258,-503.068C198.782,-493.634 226.593,-479.209 248,-462 258.069,-453.905 256.119,-446.966 267,-440 288.128,-426.474 348.297,-410.475 394.13,-399.621"/>
<polygon fill="black" stroke="black" points="395.028,-403.005 403.967,-397.317 393.432,-396.19 395.028,-403.005"/>
<text text-anchor="middle" x="315.5" y="-454" font-family="Times New Roman,serif" font-size="10.00">Reshape1332_Output_0</text>
<text text-anchor="middle" x="315.5" y="-443" font-family="Times New Roman,serif" font-size="10.00">[#](1000,)</text>
</g>
<!-- Block1367 -->
<g id="node5" class="node"><title>Block1367</title>
<polygon fill="lightgray" stroke="black" stroke-width="4" points="299,-422 205,-422 205,-350 299,-350 299,-422"/>
<text text-anchor="middle" x="252" y="-382.9" font-family="Times New Roman,serif" font-size="12.00">ClassificationError</text>
</g>
<!-- Reshape1332&#45;&gt;Block1367 -->
<g id="edge54" class="edge"><title>Reshape1332&#45;&gt;Block1367</title>
<path fill="none" stroke="black" d="M144.887,-494.333C142.129,-478.319 141.056,-456.204 151,-440 161.094,-423.552 178.139,-411.947 195.381,-403.88"/>
<polygon fill="black" stroke="black" points="197.143,-406.932 204.937,-399.755 194.368,-400.505 197.143,-406.932"/>
<text text-anchor="middle" x="199.5" y="-454" font-family="Times New Roman,serif" font-size="10.00">Reshape1332_Output_0</text>
<text text-anchor="middle" x="199.5" y="-443" font-family="Times New Roman,serif" font-size="10.00">[#](1000,)</text>
</g>
<!-- Block1346&#45;&gt;Combine1404 -->
<g id="edge2" class="edge"><title>Block1346&#45;&gt;Combine1404</title>
<path fill="none" stroke="black" d="M498.261,-351.903C503.819,-345.94 508.683,-339.276 512,-332 519.239,-316.121 517.212,-271.319 506,-249 478.866,-194.984 409.578,-172.279 359.267,-162.775"/>
<polygon fill="black" stroke="black" points="359.614,-159.283 349.158,-160.993 358.399,-166.176 359.614,-159.283"/>
<text text-anchor="middle" x="543.5" y="-273.5" font-family="Times New Roman,serif" font-size="10.00">model_output</text>
<text text-anchor="middle" x="543.5" y="-262.5" font-family="Times New Roman,serif" font-size="10.00">[#](1,)</text>
</g>
<!-- ReduceElements1401 -->
<g id="node4" class="node"><title>ReduceElements1401</title>
<polygon fill="lightgray" stroke="black" stroke-width="4" points="497,-292 405,-292 405,-249 497,-249 497,-292"/>
<text text-anchor="middle" x="451" y="-267.4" font-family="Times New Roman,serif" font-size="12.00">ReduceElements</text>
</g>
<!-- Block1346&#45;&gt;ReduceElements1401 -->
<g id="edge53" class="edge"><title>Block1346&#45;&gt;ReduceElements1401</title>
<path fill="none" stroke="black" d="M451,-349.71C451,-334.524 451,-316.934 451,-302.286"/>
<polygon fill="black" stroke="black" points="454.5,-302.217 451,-292.217 447.5,-302.217 454.5,-302.217"/>
<text text-anchor="middle" x="479.5" y="-324" font-family="Times New Roman,serif" font-size="10.00">model_output</text>
<text text-anchor="middle" x="479.5" y="-313" font-family="Times New Roman,serif" font-size="10.00">[#](1,)</text>
</g>
<!-- ReduceElements1401&#45;&gt;Combine1404 -->
<g id="edge3" class="edge"><title>ReduceElements1401&#45;&gt;Combine1404</title>
<path fill="none" stroke="black" d="M424.017,-248.946C405.113,-234.546 379.202,-214.809 356.12,-197.225"/>
<polygon fill="black" stroke="black" points="358.165,-194.384 348.089,-191.108 353.923,-199.952 358.165,-194.384"/>
<text text-anchor="middle" x="428" y="-223" font-family="Times New Roman,serif" font-size="10.00">aggregateLoss</text>
<text text-anchor="middle" x="428" y="-212" font-family="Times New Roman,serif" font-size="10.00">()</text>
</g>
<!-- Block1367&#45;&gt;Combine1404 -->
<g id="edge4" class="edge"><title>Block1367&#45;&gt;Combine1404</title>
<path fill="none" stroke="black" d="M279.454,-349.852C282.843,-344.135 285.861,-338.086 288,-332 302.941,-289.494 305.34,-237.776 304.674,-201.438"/>
<polygon fill="black" stroke="black" points="308.165,-201.052 304.396,-191.15 301.167,-201.241 308.165,-201.052"/>
<text text-anchor="middle" x="345.5" y="-273.5" font-family="Times New Roman,serif" font-size="10.00">Block1367_Output_0</text>
<text text-anchor="middle" x="345.5" y="-262.5" font-family="Times New Roman,serif" font-size="10.00">[#](1,)</text>
</g>
<!-- ReduceElements1398 -->
<g id="node6" class="node"><title>ReduceElements1398</title>
<polygon fill="lightgray" stroke="black" stroke-width="4" points="249,-292 157,-292 157,-249 249,-249 249,-292"/>
<text text-anchor="middle" x="203" y="-267.4" font-family="Times New Roman,serif" font-size="12.00">ReduceElements</text>
</g>
<!-- Block1367&#45;&gt;ReduceElements1398 -->
<g id="edge56" class="edge"><title>Block1367&#45;&gt;ReduceElements1398</title>
<path fill="none" stroke="black" d="M213.228,-349.85C209.073,-344.303 205.467,-338.301 203,-332 199.373,-322.734 198.43,-312.041 198.682,-302.246"/>
<polygon fill="black" stroke="black" points="202.187,-302.289 199.354,-292.08 195.202,-301.827 202.187,-302.289"/>
<text text-anchor="middle" x="245.5" y="-324" font-family="Times New Roman,serif" font-size="10.00">Block1367_Output_0</text>
<text text-anchor="middle" x="245.5" y="-313" font-family="Times New Roman,serif" font-size="10.00">[#](1,)</text>
</g>
<!-- ReduceElements1398&#45;&gt;Combine1404 -->
<g id="edge5" class="edge"><title>ReduceElements1398&#45;&gt;Combine1404</title>
<path fill="none" stroke="black" d="M198.373,-248.726C196.762,-236.329 196.857,-220.762 204,-209 213.442,-193.452 229.172,-182.175 245.296,-174.129"/>
<polygon fill="black" stroke="black" points="247.171,-177.119 254.791,-169.758 244.243,-170.761 247.171,-177.119"/>
<text text-anchor="middle" x="246" y="-223" font-family="Times New Roman,serif" font-size="10.00">aggregateEvalMetric</text>
<text text-anchor="middle" x="246" y="-212" font-family="Times New Roman,serif" font-size="10.00">()</text>
</g>
<!-- Block1235 -->
<g id="node12" class="node"><title>Block1235</title>
<polygon fill="lightgray" stroke="black" stroke-width="4" points="197,-682 103,-682 103,-610 197,-610 197,-682"/>
<text text-anchor="middle" x="150" y="-642.9" font-family="Times New Roman,serif" font-size="12.00">AveragePooling</text>
</g>
<!-- Block1235&#45;&gt;Reshape1332 -->
<g id="edge11" class="edge"><title>Block1235&#45;&gt;Reshape1332</title>
<path fill="none" stroke="black" d="M150,-609.685C150,-590.295 150,-566.476 150,-547.84"/>
<polygon fill="black" stroke="black" points="153.5,-547.81 150,-537.81 146.5,-547.81 153.5,-547.81"/>
<text text-anchor="middle" x="192.5" y="-584" font-family="Times New Roman,serif" font-size="10.00">Block1235_Output_0</text>
<text text-anchor="middle" x="192.5" y="-573" font-family="Times New Roman,serif" font-size="10.00">[#](1000, 1, 1)</text>
</g>
<!-- Block1123 -->
<g id="node13" class="node"><title>Block1123</title>
<polygon fill="lightgray" stroke="black" stroke-width="4" points="197,-812 103,-812 103,-740 197,-740 197,-812"/>
<text text-anchor="middle" x="150" y="-772.9" font-family="Times New Roman,serif" font-size="12.00">Convolution</text>
</g>
<!-- Block1123&#45;&gt;Block1235 -->
<g id="edge12" class="edge"><title>Block1123&#45;&gt;Block1235</title>
<path fill="none" stroke="black" d="M150,-739.685C150,-725.135 150,-708.091 150,-692.614"/>
<polygon fill="black" stroke="black" points="153.5,-692.2 150,-682.2 146.5,-692.2 153.5,-692.2"/>
<text text-anchor="middle" x="192.5" y="-714" font-family="Times New Roman,serif" font-size="10.00">Block1123_Output_0</text>
<text text-anchor="middle" x="192.5" y="-703" font-family="Times New Roman,serif" font-size="10.00">[#](1000, 2, 2)</text>
</g>
<!-- Parameter1090 -->
<g id="node14" class="node"><title>Parameter1090</title>
<polygon fill="lightgray" stroke="black" points="96,-927.5 0,-927.5 0,-884.5 96,-884.5 96,-927.5"/>
<text text-anchor="middle" x="48" y="-909.4" font-family="Times New Roman,serif" font-size="12.00">W</text>
<text text-anchor="middle" x="48" y="-896.4" font-family="Times New Roman,serif" font-size="12.00">(1000, 640, 1, 1)</text>
</g>
<!-- Parameter1090&#45;&gt;Block1123 -->
<g id="edge13" class="edge"><title>Parameter1090&#45;&gt;Block1123</title>
<path fill="none" stroke="black" d="M55.4391,-884.215C61.7566,-868.343 71.885,-846.469 85,-830 88.2059,-825.974 91.7656,-822.05 95.5202,-818.276"/>
<polygon fill="black" stroke="black" points="98.1079,-820.645 102.939,-811.216 93.2822,-815.574 98.1079,-820.645"/>
<text text-anchor="middle" x="115.5" y="-844" font-family="Times New Roman,serif" font-size="10.00">W</text>
<text text-anchor="middle" x="115.5" y="-833" font-family="Times New Roman,serif" font-size="10.00">(1000, 640, 1, 1)</text>
</g>
<!-- Parameter1091 -->
<g id="node15" class="node"><title>Parameter1091</title>
<polygon fill="lightgray" stroke="black" points="186,-927.5 114,-927.5 114,-884.5 186,-884.5 186,-927.5"/>
<text text-anchor="middle" x="150" y="-909.4" font-family="Times New Roman,serif" font-size="12.00">b</text>
<text text-anchor="middle" x="150" y="-896.4" font-family="Times New Roman,serif" font-size="12.00">(1000, 1, 1)</text>
</g>
<!-- Parameter1091&#45;&gt;Block1123 -->
<g id="edge14" class="edge"><title>Parameter1091&#45;&gt;Block1123</title>
<path fill="none" stroke="black" d="M150,-884.435C150,-867.673 150,-843.385 150,-822.141"/>
<polygon fill="black" stroke="black" points="153.5,-822.003 150,-812.003 146.5,-822.003 153.5,-822.003"/>
<text text-anchor="middle" x="171.5" y="-844" font-family="Times New Roman,serif" font-size="10.00">b</text>
<text text-anchor="middle" x="171.5" y="-833" font-family="Times New Roman,serif" font-size="10.00">(1000, 1, 1)</text>
</g>
<!-- Block1005 -->
<g id="node16" class="node"><title>Block1005</title>
<polygon fill="lightgray" stroke="black" stroke-width="4" points="298,-942 204,-942 204,-870 298,-870 298,-942"/>
<text text-anchor="middle" x="251" y="-902.9" font-family="Times New Roman,serif" font-size="12.00">MaxPooling</text>
</g>
<!-- Block1005&#45;&gt;Block1123 -->
<g id="edge15" class="edge"><title>Block1005&#45;&gt;Block1123</title>
<path fill="none" stroke="black" d="M226.717,-869.727C217.664,-856.997 207.123,-842.654 197,-830 194.364,-826.705 191.59,-823.341 188.763,-819.986"/>
<polygon fill="black" stroke="black" points="191.27,-817.532 182.109,-812.21 185.951,-822.083 191.27,-817.532"/>
<text text-anchor="middle" x="254.5" y="-844" font-family="Times New Roman,serif" font-size="10.00">Block1005_Output_0</text>
<text text-anchor="middle" x="254.5" y="-833" font-family="Times New Roman,serif" font-size="10.00">[#](640, 2, 2)</text>
</g>
<!-- Block905 -->
<g id="node17" class="node"><title>Block905</title>
<polygon fill="lightgray" stroke="black" stroke-width="4" points="298,-1072 204,-1072 204,-1000 298,-1000 298,-1072"/>
<text text-anchor="middle" x="251" y="-1032.9" font-family="Times New Roman,serif" font-size="12.00">Convolution</text>
</g>
<!-- Block905&#45;&gt;Block1005 -->
<g id="edge16" class="edge"><title>Block905&#45;&gt;Block1005</title>
<path fill="none" stroke="black" d="M251,-999.685C251,-985.135 251,-968.091 251,-952.614"/>
<polygon fill="black" stroke="black" points="254.5,-952.2 251,-942.2 247.5,-952.2 254.5,-952.2"/>
<text text-anchor="middle" x="291" y="-974" font-family="Times New Roman,serif" font-size="10.00">Block905_Output_0</text>
<text text-anchor="middle" x="291" y="-963" font-family="Times New Roman,serif" font-size="10.00">[#](640, 4, 4)</text>
</g>
<!-- Parameter872 -->
<g id="node18" class="node"><title>Parameter872</title>
<polygon fill="lightgray" stroke="black" points="197,-1187.5 107,-1187.5 107,-1144.5 197,-1144.5 197,-1187.5"/>
<text text-anchor="middle" x="152" y="-1169.4" font-family="Times New Roman,serif" font-size="12.00">W</text>
<text text-anchor="middle" x="152" y="-1156.4" font-family="Times New Roman,serif" font-size="12.00">(640, 480, 3, 3)</text>
</g>
<!-- Parameter872&#45;&gt;Block905 -->
<g id="edge17" class="edge"><title>Parameter872&#45;&gt;Block905</title>
<path fill="none" stroke="black" d="M160.247,-1144.38C167.124,-1128.6 177.896,-1106.77 191,-1090 193.771,-1086.45 196.801,-1082.96 199.979,-1079.56"/>
<polygon fill="black" stroke="black" points="202.623,-1081.86 207.133,-1072.27 197.629,-1076.95 202.623,-1081.86"/>
<text text-anchor="middle" x="219" y="-1104" font-family="Times New Roman,serif" font-size="10.00">W</text>
<text text-anchor="middle" x="219" y="-1093" font-family="Times New Roman,serif" font-size="10.00">(640, 480, 3, 3)</text>
</g>
<!-- Parameter873 -->
<g id="node19" class="node"><title>Parameter873</title>
<polygon fill="lightgray" stroke="black" points="287,-1187.5 215,-1187.5 215,-1144.5 287,-1144.5 287,-1187.5"/>
<text text-anchor="middle" x="251" y="-1169.4" font-family="Times New Roman,serif" font-size="12.00">b</text>
<text text-anchor="middle" x="251" y="-1156.4" font-family="Times New Roman,serif" font-size="12.00">(640, 1, 1)</text>
</g>
<!-- Parameter873&#45;&gt;Block905 -->
<g id="edge18" class="edge"><title>Parameter873&#45;&gt;Block905</title>
<path fill="none" stroke="black" d="M251,-1144.43C251,-1127.67 251,-1103.38 251,-1082.14"/>
<polygon fill="black" stroke="black" points="254.5,-1082 251,-1072 247.5,-1082 254.5,-1082"/>
<text text-anchor="middle" x="270" y="-1104" font-family="Times New Roman,serif" font-size="10.00">b</text>
<text text-anchor="middle" x="270" y="-1093" font-family="Times New Roman,serif" font-size="10.00">(640, 1, 1)</text>
</g>
<!-- Block799 -->
<g id="node20" class="node"><title>Block799</title>
<polygon fill="lightgray" stroke="black" stroke-width="4" points="399,-1202 305,-1202 305,-1130 399,-1130 399,-1202"/>
<text text-anchor="middle" x="352" y="-1162.9" font-family="Times New Roman,serif" font-size="12.00">BatchNormalization</text>
</g>
<!-- Block799&#45;&gt;Block905 -->
<g id="edge19" class="edge"><title>Block799&#45;&gt;Block905</title>
<path fill="none" stroke="black" d="M324.411,-1129.88C314.515,-1117.29 303.266,-1103 293,-1090 290.422,-1086.73 287.753,-1083.36 285.067,-1079.96"/>
<polygon fill="black" stroke="black" points="287.756,-1077.72 278.806,-1072.05 282.268,-1082.07 287.756,-1077.72"/>
<text text-anchor="middle" x="349" y="-1104" font-family="Times New Roman,serif" font-size="10.00">Block799_Output_0</text>
<text text-anchor="middle" x="349" y="-1093" font-family="Times New Roman,serif" font-size="10.00">[#](480, 4, 4)</text>
</g>
<!-- Parameter777 -->
<g id="node21" class="node"><title>Parameter777</title>
<polygon fill="lightgray" stroke="black" points="298,-1317.5 226,-1317.5 226,-1274.5 298,-1274.5 298,-1317.5"/>
<text text-anchor="middle" x="262" y="-1299.4" font-family="Times New Roman,serif" font-size="12.00">scale</text>
<text text-anchor="middle" x="262" y="-1286.4" font-family="Times New Roman,serif" font-size="12.00">(480,)</text>
</g>
<!-- Parameter777&#45;&gt;Block799 -->
<g id="edge20" class="edge"><title>Parameter777&#45;&gt;Block799</title>
<path fill="none" stroke="black" d="M276.46,-1274.43C288.567,-1257.22 306.259,-1232.05 321.477,-1210.41"/>
<polygon fill="black" stroke="black" points="324.5,-1212.2 327.389,-1202 318.774,-1208.17 324.5,-1212.2"/>
<text text-anchor="middle" x="323" y="-1234" font-family="Times New Roman,serif" font-size="10.00">scale</text>
<text text-anchor="middle" x="323" y="-1223" font-family="Times New Roman,serif" font-size="10.00">(480,)</text>
</g>
<!-- Parameter778 -->
<g id="node22" class="node"><title>Parameter778</title>
<polygon fill="lightgray" stroke="black" points="388,-1317.5 316,-1317.5 316,-1274.5 388,-1274.5 388,-1317.5"/>
<text text-anchor="middle" x="352" y="-1299.4" font-family="Times New Roman,serif" font-size="12.00">bias</text>
<text text-anchor="middle" x="352" y="-1286.4" font-family="Times New Roman,serif" font-size="12.00">(480,)</text>
</g>
<!-- Parameter778&#45;&gt;Block799 -->
<g id="edge21" class="edge"><title>Parameter778&#45;&gt;Block799</title>
<path fill="none" stroke="black" d="M352,-1274.43C352,-1257.67 352,-1233.38 352,-1212.14"/>
<polygon fill="black" stroke="black" points="355.5,-1212 352,-1202 348.5,-1212 355.5,-1212"/>
<text text-anchor="middle" x="363" y="-1234" font-family="Times New Roman,serif" font-size="10.00">bias</text>
<text text-anchor="middle" x="363" y="-1223" font-family="Times New Roman,serif" font-size="10.00">(480,)</text>
</g>
<!-- Block708 -->
<g id="node23" class="node"><title>Block708</title>
<polygon fill="lightgray" stroke="black" stroke-width="4" points="500,-1332 406,-1332 406,-1260 500,-1260 500,-1332"/>
<text text-anchor="middle" x="453" y="-1292.9" font-family="Times New Roman,serif" font-size="12.00">MaxPooling</text>
</g>
<!-- Block708&#45;&gt;Block799 -->
<g id="edge22" class="edge"><title>Block708&#45;&gt;Block799</title>
<path fill="none" stroke="black" d="M425.134,-1259.68C413.101,-1244.44 398.907,-1226.45 386.24,-1210.39"/>
<polygon fill="black" stroke="black" points="388.717,-1207.88 379.775,-1202.2 383.222,-1212.22 388.717,-1207.88"/>
<text text-anchor="middle" x="448" y="-1234" font-family="Times New Roman,serif" font-size="10.00">Block708_Output_0</text>
<text text-anchor="middle" x="448" y="-1223" font-family="Times New Roman,serif" font-size="10.00">[#](480, 4, 4)</text>
</g>
<!-- Block624 -->
<g id="node24" class="node"><title>Block624</title>
<polygon fill="lightgray" stroke="black" stroke-width="4" points="500,-1462 406,-1462 406,-1390 500,-1390 500,-1462"/>
<text text-anchor="middle" x="453" y="-1422.9" font-family="Times New Roman,serif" font-size="12.00">Convolution</text>
</g>
<!-- Block624&#45;&gt;Block708 -->
<g id="edge23" class="edge"><title>Block624&#45;&gt;Block708</title>
<path fill="none" stroke="black" d="M453,-1389.68C453,-1375.13 453,-1358.09 453,-1342.61"/>
<polygon fill="black" stroke="black" points="456.5,-1342.2 453,-1332.2 449.5,-1342.2 456.5,-1342.2"/>
<text text-anchor="middle" x="493" y="-1364" font-family="Times New Roman,serif" font-size="10.00">Block624_Output_0</text>
<text text-anchor="middle" x="493" y="-1353" font-family="Times New Roman,serif" font-size="10.00">[#](480, 8, 8)</text>
</g>
<!-- Parameter591 -->
<g id="node25" class="node"><title>Parameter591</title>
<polygon fill="lightgray" stroke="black" points="399,-1577.5 309,-1577.5 309,-1534.5 399,-1534.5 399,-1577.5"/>
<text text-anchor="middle" x="354" y="-1559.4" font-family="Times New Roman,serif" font-size="12.00">W</text>
<text text-anchor="middle" x="354" y="-1546.4" font-family="Times New Roman,serif" font-size="12.00">(480, 320, 3, 3)</text>
</g>
<!-- Parameter591&#45;&gt;Block624 -->
<g id="edge24" class="edge"><title>Parameter591&#45;&gt;Block624</title>
<path fill="none" stroke="black" d="M362.247,-1534.38C369.124,-1518.6 379.896,-1496.77 393,-1480 395.771,-1476.45 398.801,-1472.96 401.979,-1469.56"/>
<polygon fill="black" stroke="black" points="404.623,-1471.86 409.133,-1462.27 399.629,-1466.95 404.623,-1471.86"/>
<text text-anchor="middle" x="421" y="-1494" font-family="Times New Roman,serif" font-size="10.00">W</text>
<text text-anchor="middle" x="421" y="-1483" font-family="Times New Roman,serif" font-size="10.00">(480, 320, 3, 3)</text>
</g>
<!-- Parameter592 -->
<g id="node26" class="node"><title>Parameter592</title>
<polygon fill="lightgray" stroke="black" points="489,-1577.5 417,-1577.5 417,-1534.5 489,-1534.5 489,-1577.5"/>
<text text-anchor="middle" x="453" y="-1559.4" font-family="Times New Roman,serif" font-size="12.00">b</text>
<text text-anchor="middle" x="453" y="-1546.4" font-family="Times New Roman,serif" font-size="12.00">(480, 1, 1)</text>
</g>
<!-- Parameter592&#45;&gt;Block624 -->
<g id="edge25" class="edge"><title>Parameter592&#45;&gt;Block624</title>
<path fill="none" stroke="black" d="M453,-1534.43C453,-1517.67 453,-1493.38 453,-1472.14"/>
<polygon fill="black" stroke="black" points="456.5,-1472 453,-1462 449.5,-1472 456.5,-1472"/>
<text text-anchor="middle" x="472" y="-1494" font-family="Times New Roman,serif" font-size="10.00">b</text>
<text text-anchor="middle" x="472" y="-1483" font-family="Times New Roman,serif" font-size="10.00">(480, 1, 1)</text>
</g>
<!-- Block534 -->
<g id="node27" class="node"><title>Block534</title>
<polygon fill="lightgray" stroke="black" stroke-width="4" points="601,-1592 507,-1592 507,-1520 601,-1520 601,-1592"/>
<text text-anchor="middle" x="554" y="-1552.9" font-family="Times New Roman,serif" font-size="12.00">BatchNormalization</text>
</g>
<!-- Block534&#45;&gt;Block624 -->
<g id="edge26" class="edge"><title>Block534&#45;&gt;Block624</title>
<path fill="none" stroke="black" d="M526.411,-1519.88C516.515,-1507.29 505.266,-1493 495,-1480 492.422,-1476.73 489.753,-1473.36 487.067,-1469.96"/>
<polygon fill="black" stroke="black" points="489.756,-1467.72 480.806,-1462.05 484.268,-1472.07 489.756,-1467.72"/>
<text text-anchor="middle" x="551" y="-1494" font-family="Times New Roman,serif" font-size="10.00">Block534_Output_0</text>
<text text-anchor="middle" x="551" y="-1483" font-family="Times New Roman,serif" font-size="10.00">[#](320, 8, 8)</text>
</g>
<!-- Parameter512 -->
<g id="node28" class="node"><title>Parameter512</title>
<polygon fill="lightgray" stroke="black" points="500,-1707.5 428,-1707.5 428,-1664.5 500,-1664.5 500,-1707.5"/>
<text text-anchor="middle" x="464" y="-1689.4" font-family="Times New Roman,serif" font-size="12.00">scale</text>
<text text-anchor="middle" x="464" y="-1676.4" font-family="Times New Roman,serif" font-size="12.00">(320,)</text>
</g>
<!-- Parameter512&#45;&gt;Block534 -->
<g id="edge27" class="edge"><title>Parameter512&#45;&gt;Block534</title>
<path fill="none" stroke="black" d="M478.46,-1664.43C490.567,-1647.22 508.259,-1622.05 523.477,-1600.41"/>
<polygon fill="black" stroke="black" points="526.5,-1602.2 529.389,-1592 520.774,-1598.17 526.5,-1602.2"/>
<text text-anchor="middle" x="525" y="-1624" font-family="Times New Roman,serif" font-size="10.00">scale</text>
<text text-anchor="middle" x="525" y="-1613" font-family="Times New Roman,serif" font-size="10.00">(320,)</text>
</g>
<!-- Parameter513 -->
<g id="node29" class="node"><title>Parameter513</title>
<polygon fill="lightgray" stroke="black" points="590,-1707.5 518,-1707.5 518,-1664.5 590,-1664.5 590,-1707.5"/>
<text text-anchor="middle" x="554" y="-1689.4" font-family="Times New Roman,serif" font-size="12.00">bias</text>
<text text-anchor="middle" x="554" y="-1676.4" font-family="Times New Roman,serif" font-size="12.00">(320,)</text>
</g>
<!-- Parameter513&#45;&gt;Block534 -->
<g id="edge28" class="edge"><title>Parameter513&#45;&gt;Block534</title>
<path fill="none" stroke="black" d="M554,-1664.43C554,-1647.67 554,-1623.38 554,-1602.14"/>
<polygon fill="black" stroke="black" points="557.5,-1602 554,-1592 550.5,-1602 557.5,-1602"/>
<text text-anchor="middle" x="565" y="-1624" font-family="Times New Roman,serif" font-size="10.00">bias</text>
<text text-anchor="middle" x="565" y="-1613" font-family="Times New Roman,serif" font-size="10.00">(320,)</text>
</g>
<!-- Block459 -->
<g id="node30" class="node"><title>Block459</title>
<polygon fill="lightgray" stroke="black" stroke-width="4" points="702,-1722 608,-1722 608,-1650 702,-1650 702,-1722"/>
<text text-anchor="middle" x="655" y="-1682.9" font-family="Times New Roman,serif" font-size="12.00">MaxPooling</text>
</g>
<!-- Block459&#45;&gt;Block534 -->
<g id="edge29" class="edge"><title>Block459&#45;&gt;Block534</title>
<path fill="none" stroke="black" d="M627.134,-1649.68C615.101,-1634.44 600.907,-1616.45 588.24,-1600.39"/>
<polygon fill="black" stroke="black" points="590.717,-1597.88 581.775,-1592.2 585.222,-1602.22 590.717,-1597.88"/>
<text text-anchor="middle" x="650" y="-1624" font-family="Times New Roman,serif" font-size="10.00">Block459_Output_0</text>
<text text-anchor="middle" x="650" y="-1613" font-family="Times New Roman,serif" font-size="10.00">[#](320, 8, 8)</text>
</g>
<!-- Block391 -->
<g id="node31" class="node"><title>Block391</title>
<polygon fill="lightgray" stroke="black" stroke-width="4" points="702,-1852 608,-1852 608,-1780 702,-1780 702,-1852"/>
<text text-anchor="middle" x="655" y="-1812.9" font-family="Times New Roman,serif" font-size="12.00">Convolution</text>
</g>
<!-- Block391&#45;&gt;Block459 -->
<g id="edge30" class="edge"><title>Block391&#45;&gt;Block459</title>
<path fill="none" stroke="black" d="M655,-1779.68C655,-1765.13 655,-1748.09 655,-1732.61"/>
<polygon fill="black" stroke="black" points="658.5,-1732.2 655,-1722.2 651.5,-1732.2 658.5,-1732.2"/>
<text text-anchor="middle" x="695" y="-1754" font-family="Times New Roman,serif" font-size="10.00">Block391_Output_0</text>
<text text-anchor="middle" x="695" y="-1743" font-family="Times New Roman,serif" font-size="10.00">[#](320, 16, 16)</text>
</g>
<!-- Parameter358 -->
<g id="node32" class="node"><title>Parameter358</title>
<polygon fill="lightgray" stroke="black" points="601,-1967.5 511,-1967.5 511,-1924.5 601,-1924.5 601,-1967.5"/>
<text text-anchor="middle" x="556" y="-1949.4" font-family="Times New Roman,serif" font-size="12.00">W</text>
<text text-anchor="middle" x="556" y="-1936.4" font-family="Times New Roman,serif" font-size="12.00">(320, 160, 3, 3)</text>
</g>
<!-- Parameter358&#45;&gt;Block391 -->
<g id="edge31" class="edge"><title>Parameter358&#45;&gt;Block391</title>
<path fill="none" stroke="black" d="M564.247,-1924.38C571.124,-1908.6 581.896,-1886.77 595,-1870 597.771,-1866.45 600.801,-1862.96 603.979,-1859.56"/>
<polygon fill="black" stroke="black" points="606.623,-1861.86 611.133,-1852.27 601.629,-1856.95 606.623,-1861.86"/>
<text text-anchor="middle" x="623" y="-1884" font-family="Times New Roman,serif" font-size="10.00">W</text>
<text text-anchor="middle" x="623" y="-1873" font-family="Times New Roman,serif" font-size="10.00">(320, 160, 3, 3)</text>
</g>
<!-- Parameter359 -->
<g id="node33" class="node"><title>Parameter359</title>
<polygon fill="lightgray" stroke="black" points="691,-1967.5 619,-1967.5 619,-1924.5 691,-1924.5 691,-1967.5"/>
<text text-anchor="middle" x="655" y="-1949.4" font-family="Times New Roman,serif" font-size="12.00">b</text>
<text text-anchor="middle" x="655" y="-1936.4" font-family="Times New Roman,serif" font-size="12.00">(320, 1, 1)</text>
</g>
<!-- Parameter359&#45;&gt;Block391 -->
<g id="edge32" class="edge"><title>Parameter359&#45;&gt;Block391</title>
<path fill="none" stroke="black" d="M655,-1924.43C655,-1907.67 655,-1883.38 655,-1862.14"/>
<polygon fill="black" stroke="black" points="658.5,-1862 655,-1852 651.5,-1862 658.5,-1862"/>
<text text-anchor="middle" x="674" y="-1884" font-family="Times New Roman,serif" font-size="10.00">b</text>
<text text-anchor="middle" x="674" y="-1873" font-family="Times New Roman,serif" font-size="10.00">(320, 1, 1)</text>
</g>
<!-- Block317 -->
<g id="node34" class="node"><title>Block317</title>
<polygon fill="lightgray" stroke="black" stroke-width="4" points="803,-1982 709,-1982 709,-1910 803,-1910 803,-1982"/>
<text text-anchor="middle" x="756" y="-1942.9" font-family="Times New Roman,serif" font-size="12.00">BatchNormalization</text>
</g>
<!-- Block317&#45;&gt;Block391 -->
<g id="edge33" class="edge"><title>Block317&#45;&gt;Block391</title>
<path fill="none" stroke="black" d="M728.411,-1909.88C718.515,-1897.29 707.266,-1883 697,-1870 694.422,-1866.73 691.753,-1863.36 689.067,-1859.96"/>
<polygon fill="black" stroke="black" points="691.756,-1857.72 682.806,-1852.05 686.268,-1862.07 691.756,-1857.72"/>
<text text-anchor="middle" x="753" y="-1884" font-family="Times New Roman,serif" font-size="10.00">Block317_Output_0</text>
<text text-anchor="middle" x="753" y="-1873" font-family="Times New Roman,serif" font-size="10.00">[#](160, 16, 16)</text>
</g>
<!-- Parameter295 -->
<g id="node35" class="node"><title>Parameter295</title>
<polygon fill="lightgray" stroke="black" points="702,-2097.5 630,-2097.5 630,-2054.5 702,-2054.5 702,-2097.5"/>
<text text-anchor="middle" x="666" y="-2079.4" font-family="Times New Roman,serif" font-size="12.00">scale</text>
<text text-anchor="middle" x="666" y="-2066.4" font-family="Times New Roman,serif" font-size="12.00">(160,)</text>
</g>
<!-- Parameter295&#45;&gt;Block317 -->
<g id="edge34" class="edge"><title>Parameter295&#45;&gt;Block317</title>
<path fill="none" stroke="black" d="M680.46,-2054.43C692.567,-2037.22 710.259,-2012.05 725.477,-1990.41"/>
<polygon fill="black" stroke="black" points="728.5,-1992.2 731.389,-1982 722.774,-1988.17 728.5,-1992.2"/>
<text text-anchor="middle" x="727" y="-2014" font-family="Times New Roman,serif" font-size="10.00">scale</text>
<text text-anchor="middle" x="727" y="-2003" font-family="Times New Roman,serif" font-size="10.00">(160,)</text>
</g>
<!-- Parameter296 -->
<g id="node36" class="node"><title>Parameter296</title>
<polygon fill="lightgray" stroke="black" points="792,-2097.5 720,-2097.5 720,-2054.5 792,-2054.5 792,-2097.5"/>
<text text-anchor="middle" x="756" y="-2079.4" font-family="Times New Roman,serif" font-size="12.00">bias</text>
<text text-anchor="middle" x="756" y="-2066.4" font-family="Times New Roman,serif" font-size="12.00">(160,)</text>
</g>
<!-- Parameter296&#45;&gt;Block317 -->
<g id="edge35" class="edge"><title>Parameter296&#45;&gt;Block317</title>
<path fill="none" stroke="black" d="M756,-2054.43C756,-2037.67 756,-2013.38 756,-1992.14"/>
<polygon fill="black" stroke="black" points="759.5,-1992 756,-1982 752.5,-1992 759.5,-1992"/>
<text text-anchor="middle" x="767" y="-2014" font-family="Times New Roman,serif" font-size="10.00">bias</text>
<text text-anchor="middle" x="767" y="-2003" font-family="Times New Roman,serif" font-size="10.00">(160,)</text>
</g>
<!-- Block258 -->
<g id="node37" class="node"><title>Block258</title>
<polygon fill="lightgray" stroke="black" stroke-width="4" points="904,-2112 810,-2112 810,-2040 904,-2040 904,-2112"/>
<text text-anchor="middle" x="857" y="-2072.9" font-family="Times New Roman,serif" font-size="12.00">MaxPooling</text>
</g>
<!-- Block258&#45;&gt;Block317 -->
<g id="edge36" class="edge"><title>Block258&#45;&gt;Block317</title>
<path fill="none" stroke="black" d="M829.134,-2039.68C817.101,-2024.44 802.907,-2006.45 790.24,-1990.39"/>
<polygon fill="black" stroke="black" points="792.717,-1987.88 783.775,-1982.2 787.222,-1992.22 792.717,-1987.88"/>
<text text-anchor="middle" x="852" y="-2014" font-family="Times New Roman,serif" font-size="10.00">Block258_Output_0</text>
<text text-anchor="middle" x="852" y="-2003" font-family="Times New Roman,serif" font-size="10.00">[#](160, 16, 16)</text>
</g>
<!-- Block206 -->
<g id="node38" class="node"><title>Block206</title>
<polygon fill="lightgray" stroke="black" stroke-width="4" points="904,-2242 810,-2242 810,-2170 904,-2170 904,-2242"/>
<text text-anchor="middle" x="857" y="-2202.9" font-family="Times New Roman,serif" font-size="12.00">Convolution</text>
</g>
<!-- Block206&#45;&gt;Block258 -->
<g id="edge37" class="edge"><title>Block206&#45;&gt;Block258</title>
<path fill="none" stroke="black" d="M857,-2169.68C857,-2155.13 857,-2138.09 857,-2122.61"/>
<polygon fill="black" stroke="black" points="860.5,-2122.2 857,-2112.2 853.5,-2122.2 860.5,-2122.2"/>
<text text-anchor="middle" x="897" y="-2144" font-family="Times New Roman,serif" font-size="10.00">Block206_Output_0</text>
<text text-anchor="middle" x="897" y="-2133" font-family="Times New Roman,serif" font-size="10.00">[#](160, 32, 32)</text>
</g>
<!-- Parameter173 -->
<g id="node39" class="node"><title>Parameter173</title>
<polygon fill="lightgray" stroke="black" points="803,-2357.5 713,-2357.5 713,-2314.5 803,-2314.5 803,-2357.5"/>
<text text-anchor="middle" x="758" y="-2339.4" font-family="Times New Roman,serif" font-size="12.00">W</text>
<text text-anchor="middle" x="758" y="-2326.4" font-family="Times New Roman,serif" font-size="12.00">(160, 320, 3, 3)</text>
</g>
<!-- Parameter173&#45;&gt;Block206 -->
<g id="edge38" class="edge"><title>Parameter173&#45;&gt;Block206</title>
<path fill="none" stroke="black" d="M766.247,-2314.38C773.124,-2298.6 783.896,-2276.77 797,-2260 799.771,-2256.45 802.801,-2252.96 805.979,-2249.56"/>
<polygon fill="black" stroke="black" points="808.623,-2251.86 813.133,-2242.27 803.629,-2246.95 808.623,-2251.86"/>
<text text-anchor="middle" x="825" y="-2274" font-family="Times New Roman,serif" font-size="10.00">W</text>
<text text-anchor="middle" x="825" y="-2263" font-family="Times New Roman,serif" font-size="10.00">(160, 320, 3, 3)</text>
</g>
<!-- Parameter174 -->
<g id="node40" class="node"><title>Parameter174</title>
<polygon fill="lightgray" stroke="black" points="893,-2357.5 821,-2357.5 821,-2314.5 893,-2314.5 893,-2357.5"/>
<text text-anchor="middle" x="857" y="-2339.4" font-family="Times New Roman,serif" font-size="12.00">b</text>
<text text-anchor="middle" x="857" y="-2326.4" font-family="Times New Roman,serif" font-size="12.00">(160, 1, 1)</text>
</g>
<!-- Parameter174&#45;&gt;Block206 -->
<g id="edge39" class="edge"><title>Parameter174&#45;&gt;Block206</title>
<path fill="none" stroke="black" d="M857,-2314.43C857,-2297.67 857,-2273.38 857,-2252.14"/>
<polygon fill="black" stroke="black" points="860.5,-2252 857,-2242 853.5,-2252 860.5,-2252"/>
<text text-anchor="middle" x="876" y="-2274" font-family="Times New Roman,serif" font-size="10.00">b</text>
<text text-anchor="middle" x="876" y="-2263" font-family="Times New Roman,serif" font-size="10.00">(160, 1, 1)</text>
</g>
<!-- Block148 -->
<g id="node41" class="node"><title>Block148</title>
<polygon fill="lightgray" stroke="black" stroke-width="4" points="1005,-2372 911,-2372 911,-2300 1005,-2300 1005,-2372"/>
<text text-anchor="middle" x="958" y="-2332.9" font-family="Times New Roman,serif" font-size="12.00">BatchNormalization</text>
</g>
<!-- Block148&#45;&gt;Block206 -->
<g id="edge40" class="edge"><title>Block148&#45;&gt;Block206</title>
<path fill="none" stroke="black" d="M930.411,-2299.88C920.515,-2287.29 909.266,-2273 899,-2260 896.422,-2256.73 893.753,-2253.36 891.067,-2249.96"/>
<polygon fill="black" stroke="black" points="893.756,-2247.72 884.806,-2242.05 888.268,-2252.07 893.756,-2247.72"/>
<text text-anchor="middle" x="955" y="-2274" font-family="Times New Roman,serif" font-size="10.00">Block148_Output_0</text>
<text text-anchor="middle" x="955" y="-2263" font-family="Times New Roman,serif" font-size="10.00">[#](320, 32, 32)</text>
</g>
<!-- Parameter126 -->
<g id="node42" class="node"><title>Parameter126</title>
<polygon fill="lightgray" stroke="black" points="904,-2487.5 832,-2487.5 832,-2444.5 904,-2444.5 904,-2487.5"/>
<text text-anchor="middle" x="868" y="-2469.4" font-family="Times New Roman,serif" font-size="12.00">scale</text>
<text text-anchor="middle" x="868" y="-2456.4" font-family="Times New Roman,serif" font-size="12.00">(320,)</text>
</g>
<!-- Parameter126&#45;&gt;Block148 -->
<g id="edge41" class="edge"><title>Parameter126&#45;&gt;Block148</title>
<path fill="none" stroke="black" d="M882.46,-2444.43C894.567,-2427.22 912.259,-2402.05 927.477,-2380.41"/>
<polygon fill="black" stroke="black" points="930.5,-2382.2 933.389,-2372 924.774,-2378.17 930.5,-2382.2"/>
<text text-anchor="middle" x="929" y="-2404" font-family="Times New Roman,serif" font-size="10.00">scale</text>
<text text-anchor="middle" x="929" y="-2393" font-family="Times New Roman,serif" font-size="10.00">(320,)</text>
</g>
<!-- Parameter127 -->
<g id="node43" class="node"><title>Parameter127</title>
<polygon fill="lightgray" stroke="black" points="994,-2487.5 922,-2487.5 922,-2444.5 994,-2444.5 994,-2487.5"/>
<text text-anchor="middle" x="958" y="-2469.4" font-family="Times New Roman,serif" font-size="12.00">bias</text>
<text text-anchor="middle" x="958" y="-2456.4" font-family="Times New Roman,serif" font-size="12.00">(320,)</text>
</g>
<!-- Parameter127&#45;&gt;Block148 -->
<g id="edge42" class="edge"><title>Parameter127&#45;&gt;Block148</title>
<path fill="none" stroke="black" d="M958,-2444.43C958,-2427.67 958,-2403.38 958,-2382.14"/>
<polygon fill="black" stroke="black" points="961.5,-2382 958,-2372 954.5,-2382 961.5,-2382"/>
<text text-anchor="middle" x="969" y="-2404" font-family="Times New Roman,serif" font-size="10.00">bias</text>
<text text-anchor="middle" x="969" y="-2393" font-family="Times New Roman,serif" font-size="10.00">(320,)</text>
</g>
<!-- Block105 -->
<g id="node44" class="node"><title>Block105</title>
<polygon fill="lightgray" stroke="black" stroke-width="4" points="1106,-2502 1012,-2502 1012,-2430 1106,-2430 1106,-2502"/>
<text text-anchor="middle" x="1059" y="-2462.9" font-family="Times New Roman,serif" font-size="12.00">MaxPooling</text>
</g>
<!-- Block105&#45;&gt;Block148 -->
<g id="edge43" class="edge"><title>Block105&#45;&gt;Block148</title>
<path fill="none" stroke="black" d="M1031.13,-2429.68C1019.1,-2414.44 1004.91,-2396.45 992.24,-2380.39"/>
<polygon fill="black" stroke="black" points="994.717,-2377.88 985.775,-2372.2 989.222,-2382.22 994.717,-2377.88"/>
<text text-anchor="middle" x="1054" y="-2404" font-family="Times New Roman,serif" font-size="10.00">Block105_Output_0</text>
<text text-anchor="middle" x="1054" y="-2393" font-family="Times New Roman,serif" font-size="10.00">[#](320, 32, 32)</text>
</g>
<!-- Block69 -->
<g id="node45" class="node"><title>Block69</title>
<polygon fill="lightgray" stroke="black" stroke-width="4" points="1106,-2632 1012,-2632 1012,-2560 1106,-2560 1106,-2632"/>
<text text-anchor="middle" x="1059" y="-2592.9" font-family="Times New Roman,serif" font-size="12.00">Convolution</text>
</g>
<!-- Block69&#45;&gt;Block105 -->
<g id="edge44" class="edge"><title>Block69&#45;&gt;Block105</title>
<path fill="none" stroke="black" d="M1059,-2559.68C1059,-2545.13 1059,-2528.09 1059,-2512.61"/>
<polygon fill="black" stroke="black" points="1062.5,-2512.2 1059,-2502.2 1055.5,-2512.2 1062.5,-2512.2"/>
<text text-anchor="middle" x="1097" y="-2534" font-family="Times New Roman,serif" font-size="10.00">Block69_Output_0</text>
<text text-anchor="middle" x="1097" y="-2523" font-family="Times New Roman,serif" font-size="10.00">[#](320, 64, 64)</text>
</g>
<!-- Parameter36 -->
<g id="node46" class="node"><title>Parameter36</title>
<polygon fill="lightgray" stroke="black" points="1005,-2747.5 927,-2747.5 927,-2704.5 1005,-2704.5 1005,-2747.5"/>
<text text-anchor="middle" x="966" y="-2729.4" font-family="Times New Roman,serif" font-size="12.00">W</text>
<text text-anchor="middle" x="966" y="-2716.4" font-family="Times New Roman,serif" font-size="12.00">(320, 3, 3, 3)</text>
</g>
<!-- Parameter36&#45;&gt;Block69 -->
<g id="edge45" class="edge"><title>Parameter36&#45;&gt;Block69</title>
<path fill="none" stroke="black" d="M975.73,-2704.4C983.507,-2688.83 995.195,-2667.26 1008,-2650 1010.53,-2646.6 1013.25,-2643.18 1016.09,-2639.82"/>
<polygon fill="black" stroke="black" points="1018.9,-2641.93 1022.85,-2632.1 1013.63,-2637.32 1018.9,-2641.93"/>
<text text-anchor="middle" x="1031.5" y="-2664" font-family="Times New Roman,serif" font-size="10.00">W</text>
<text text-anchor="middle" x="1031.5" y="-2653" font-family="Times New Roman,serif" font-size="10.00">(320, 3, 3, 3)</text>
</g>
<!-- Parameter37 -->
<g id="node47" class="node"><title>Parameter37</title>
<polygon fill="lightgray" stroke="black" points="1095,-2747.5 1023,-2747.5 1023,-2704.5 1095,-2704.5 1095,-2747.5"/>
<text text-anchor="middle" x="1059" y="-2729.4" font-family="Times New Roman,serif" font-size="12.00">b</text>
<text text-anchor="middle" x="1059" y="-2716.4" font-family="Times New Roman,serif" font-size="12.00">(320, 1, 1)</text>
</g>
<!-- Parameter37&#45;&gt;Block69 -->
<g id="edge46" class="edge"><title>Parameter37&#45;&gt;Block69</title>
<path fill="none" stroke="black" d="M1059,-2704.43C1059,-2687.67 1059,-2663.38 1059,-2642.14"/>
<polygon fill="black" stroke="black" points="1062.5,-2642 1059,-2632 1055.5,-2642 1062.5,-2642"/>
<text text-anchor="middle" x="1078" y="-2664" font-family="Times New Roman,serif" font-size="10.00">b</text>
<text text-anchor="middle" x="1078" y="-2653" font-family="Times New Roman,serif" font-size="10.00">(320, 1, 1)</text>
</g>
<!-- Block27 -->
<g id="node48" class="node"><title>Block27</title>
<polygon fill="lightgray" stroke="black" stroke-width="4" points="1207,-2762 1113,-2762 1113,-2690 1207,-2690 1207,-2762"/>
<text text-anchor="middle" x="1160" y="-2722.9" font-family="Times New Roman,serif" font-size="12.00">BatchNormalization</text>
</g>
<!-- Block27&#45;&gt;Block69 -->
<g id="edge47" class="edge"><title>Block27&#45;&gt;Block69</title>
<path fill="none" stroke="black" d="M1132.41,-2689.88C1122.51,-2677.29 1111.27,-2663 1101,-2650 1098.42,-2646.73 1095.75,-2643.36 1093.07,-2639.96"/>
<polygon fill="black" stroke="black" points="1095.76,-2637.72 1086.81,-2632.05 1090.27,-2642.07 1095.76,-2637.72"/>
<text text-anchor="middle" x="1155" y="-2664" font-family="Times New Roman,serif" font-size="10.00">Block27_Output_0</text>
<text text-anchor="middle" x="1155" y="-2653" font-family="Times New Roman,serif" font-size="10.00">[#](3, 64, 64)</text>
</g>
<!-- Parameter5 -->
<g id="node49" class="node"><title>Parameter5</title>
<polygon fill="lightgray" stroke="black" points="1106,-2877.5 1034,-2877.5 1034,-2834.5 1106,-2834.5 1106,-2877.5"/>
<text text-anchor="middle" x="1070" y="-2859.4" font-family="Times New Roman,serif" font-size="12.00">scale</text>
<text text-anchor="middle" x="1070" y="-2846.4" font-family="Times New Roman,serif" font-size="12.00">(3,)</text>
</g>
<!-- Parameter5&#45;&gt;Block27 -->
<g id="edge48" class="edge"><title>Parameter5&#45;&gt;Block27</title>
<path fill="none" stroke="black" d="M1084.46,-2834.43C1096.57,-2817.22 1114.26,-2792.05 1129.48,-2770.41"/>
<polygon fill="black" stroke="black" points="1132.5,-2772.2 1135.39,-2762 1126.77,-2768.17 1132.5,-2772.2"/>
<text text-anchor="middle" x="1130.5" y="-2794" font-family="Times New Roman,serif" font-size="10.00">scale</text>
<text text-anchor="middle" x="1130.5" y="-2783" font-family="Times New Roman,serif" font-size="10.00">(3,)</text>
</g>
<!-- Parameter6 -->
<g id="node50" class="node"><title>Parameter6</title>
<polygon fill="lightgray" stroke="black" points="1196,-2877.5 1124,-2877.5 1124,-2834.5 1196,-2834.5 1196,-2877.5"/>
<text text-anchor="middle" x="1160" y="-2859.4" font-family="Times New Roman,serif" font-size="12.00">bias</text>
<text text-anchor="middle" x="1160" y="-2846.4" font-family="Times New Roman,serif" font-size="12.00">(3,)</text>
</g>
<!-- Parameter6&#45;&gt;Block27 -->
<g id="edge49" class="edge"><title>Parameter6&#45;&gt;Block27</title>
<path fill="none" stroke="black" d="M1160,-2834.43C1160,-2817.67 1160,-2793.38 1160,-2772.14"/>
<polygon fill="black" stroke="black" points="1163.5,-2772 1160,-2762 1156.5,-2772 1163.5,-2772"/>
<text text-anchor="middle" x="1168.5" y="-2794" font-family="Times New Roman,serif" font-size="10.00">bias</text>
<text text-anchor="middle" x="1168.5" y="-2783" font-family="Times New Roman,serif" font-size="10.00">(3,)</text>
</g>
<!-- Input3 -->
<g id="node51" class="node"><title>Input3</title>
<polygon fill="lightgray" stroke="black" stroke-width="4" points="1268.63,-2820.1 1271.7,-2820.3 1274.74,-2820.59 1277.73,-2820.98 1280.66,-2821.47 1283.53,-2822.05 1286.32,-2822.73 1289.02,-2823.5 1291.62,-2824.35 1294.1,-2825.29 1296.47,-2826.32 1298.71,-2827.43 1300.82,-2828.62 1302.78,-2829.88 1304.6,-2831.21 1306.27,-2832.61 1307.78,-2834.08 1309.13,-2835.6 1310.31,-2837.18 1311.34,-2838.82 1312.2,-2840.5 1312.89,-2842.22 1313.43,-2843.98 1313.8,-2845.77 1314.01,-2847.59 1314.07,-2849.44 1313.98,-2851.3 1313.73,-2853.17 1313.35,-2855.06 1312.83,-2856.94 1312.17,-2858.83 1311.39,-2860.7 1310.49,-2862.56 1309.48,-2864.41 1308.36,-2866.23 1307.15,-2868.02 1305.84,-2869.78 1304.44,-2871.5 1302.97,-2873.18 1301.42,-2874.82 1299.81,-2876.4 1298.14,-2877.92 1296.41,-2879.39 1294.64,-2880.79 1292.82,-2882.12 1290.96,-2883.38 1289.07,-2884.57 1287.15,-2885.68 1285.21,-2886.71 1283.25,-2887.65 1281.26,-2888.5 1279.26,-2889.27 1277.25,-2889.95 1275.23,-2890.53 1273.2,-2891.02 1271.16,-2891.41 1269.12,-2891.7 1267.07,-2891.9 1265.02,-2892 1262.98,-2892 1260.93,-2891.9 1258.88,-2891.7 1256.84,-2891.41 1254.8,-2891.02 1252.77,-2890.53 1250.75,-2889.95 1248.74,-2889.27 1246.74,-2888.5 1244.75,-2887.65 1242.79,-2886.71 1240.85,-2885.68 1238.93,-2884.57 1237.04,-2883.38 1235.18,-2882.12 1233.36,-2880.79 1231.59,-2879.39 1229.86,-2877.92 1228.19,-2876.4 1226.58,-2874.82 1225.03,-2873.18 1223.56,-2871.5 1222.16,-2869.78 1220.85,-2868.02 1219.64,-2866.23 1218.52,-2864.41 1217.51,-2862.56 1216.61,-2860.7 1215.83,-2858.83 1215.17,-2856.94 1214.65,-2855.06 1214.27,-2853.17 1214.02,-2851.3 1213.93,-2849.44 1213.99,-2847.59 1214.2,-2845.77 1214.57,-2843.98 1215.11,-2842.22 1215.8,-2840.5 1216.66,-2838.82 1217.69,-2837.18 1218.87,-2835.6 1220.22,-2834.08 1221.73,-2832.61 1223.4,-2831.21 1225.22,-2829.88 1227.18,-2828.62 1229.29,-2827.43 1231.53,-2826.32 1233.9,-2825.29 1236.38,-2824.35 1238.98,-2823.5 1241.68,-2822.73 1244.47,-2822.05 1247.34,-2821.47 1250.27,-2820.98 1253.26,-2820.59 1256.3,-2820.3 1259.37,-2820.1 1262.45,-2820 1265.55,-2820 1268.63,-2820.1"/>
<text text-anchor="middle" x="1264" y="-2859.4" font-family="Times New Roman,serif" font-size="12.00">Input</text>
<text text-anchor="middle" x="1264" y="-2846.4" font-family="Times New Roman,serif" font-size="12.00">[#](3, 64, 64)</text>
</g>
<!-- Input3&#45;&gt;Block27 -->
<g id="edge50" class="edge"><title>Input3&#45;&gt;Block27</title>
<path fill="none" stroke="black" d="M1238.29,-2823.36C1225.25,-2807.31 1209.22,-2787.58 1195.06,-2770.15"/>
<polygon fill="black" stroke="black" points="1197.73,-2767.89 1188.71,-2762.33 1192.3,-2772.3 1197.73,-2767.89"/>
<text text-anchor="middle" x="1242.5" y="-2794" font-family="Times New Roman,serif" font-size="10.00">Input3</text>
<text text-anchor="middle" x="1242.5" y="-2783" font-family="Times New Roman,serif" font-size="10.00">[#](3, 64, 64)</text>
</g>
<!-- Input4 -->
<g id="node52" class="node"><title>Input4</title>
<polygon fill="lightgray" stroke="black" stroke-width="4" points="424.633,-480.099 427.701,-480.296 430.737,-480.591 433.729,-480.983 436.664,-481.471 439.532,-482.053 442.32,-482.729 445.018,-483.496 447.615,-484.352 450.103,-485.294 452.471,-486.321 454.713,-487.429 456.819,-488.616 458.784,-489.878 460.602,-491.211 462.268,-492.612 463.777,-494.077 465.126,-495.602 466.314,-497.184 467.338,-498.816 468.198,-500.496 468.895,-502.219 469.428,-503.979 469.799,-505.772 470.012,-507.593 470.07,-509.437 469.975,-511.299 469.733,-513.175 469.348,-515.057 468.826,-516.943 468.172,-518.825 467.392,-520.701 466.493,-522.563 465.481,-524.407 464.364,-526.228 463.147,-528.021 461.837,-529.781 460.442,-531.504 458.968,-533.184 457.421,-534.816 455.809,-536.398 454.136,-537.923 452.41,-539.388 450.635,-540.789 448.817,-542.122 446.961,-543.384 445.072,-544.571 443.154,-545.679 441.21,-546.706 439.245,-547.648 437.261,-548.504 435.262,-549.271 433.251,-549.947 431.228,-550.529 429.197,-551.017 427.16,-551.409 425.118,-551.704 423.072,-551.901 421.024,-552 418.976,-552 416.928,-551.901 414.882,-551.704 412.84,-551.409 410.803,-551.017 408.772,-550.529 406.749,-549.947 404.738,-549.271 402.739,-548.504 400.755,-547.648 398.79,-546.706 396.846,-545.679 394.928,-544.571 393.039,-543.384 391.183,-542.122 389.365,-540.789 387.59,-539.388 385.864,-537.923 384.191,-536.398 382.579,-534.816 381.032,-533.184 379.558,-531.504 378.163,-529.781 376.853,-528.021 375.636,-526.228 374.519,-524.407 373.507,-522.563 372.608,-520.701 371.828,-518.825 371.174,-516.943 370.652,-515.057 370.267,-513.175 370.025,-511.299 369.93,-509.437 369.988,-507.593 370.201,-505.772 370.572,-503.979 371.105,-502.219 371.802,-500.496 372.662,-498.816 373.686,-497.184 374.874,-495.602 376.223,-494.077 377.732,-492.612 379.398,-491.211 381.216,-489.878 383.181,-488.616 385.287,-487.429 387.529,-486.321 389.897,-485.294 392.385,-484.352 394.982,-483.496 397.68,-482.729 400.468,-482.053 403.336,-481.471 406.271,-480.983 409.263,-480.591 412.299,-480.296 415.367,-480.099 418.453,-480 421.547,-480 424.633,-480.099"/>
<text text-anchor="middle" x="420" y="-519.4" font-family="Times New Roman,serif" font-size="12.00">Input</text>
<text text-anchor="middle" x="420" y="-506.4" font-family="Times New Roman,serif" font-size="12.00">[#](1000,)</text>
</g>
<!-- Input4&#45;&gt;Block1346 -->
<g id="edge52" class="edge"><title>Input4&#45;&gt;Block1346</title>
<path fill="none" stroke="black" d="M428.389,-480.361C431.978,-465.542 436.217,-448.041 440.048,-432.22"/>
<polygon fill="black" stroke="black" points="443.544,-432.654 442.496,-422.111 436.741,-431.007 443.544,-432.654"/>
<text text-anchor="middle" x="456" y="-454" font-family="Times New Roman,serif" font-size="10.00">Input4</text>
<text text-anchor="middle" x="456" y="-443" font-family="Times New Roman,serif" font-size="10.00">[#](1000,)</text>
</g>
<!-- Input4&#45;&gt;Block1367 -->
<g id="edge55" class="edge"><title>Input4&#45;&gt;Block1367</title>
<path fill="none" stroke="black" d="M402.071,-481.313C393.266,-467.164 381.612,-451.385 368,-440 350.626,-425.468 328.614,-414.087 308.445,-405.659"/>
<polygon fill="black" stroke="black" points="309.611,-402.355 299.027,-401.876 307.002,-408.851 309.611,-402.355"/>
<text text-anchor="middle" x="407" y="-454" font-family="Times New Roman,serif" font-size="10.00">Input4</text>
<text text-anchor="middle" x="407" y="-443" font-family="Times New Roman,serif" font-size="10.00">[#](1000,)</text>
</g>
</g>
</svg>
