<?xml version="1.0" encoding="UTF-8" standalone="no"?>
<!DOCTYPE svg PUBLIC "-//W3C//DTD SVG 1.1//EN"
 "http://www.w3.org/Graphics/SVG/1.1/DTD/svg11.dtd">
<!-- Generated by graphviz version 2.38.0 (20140413.2041)
 -->
<!-- Title: network_graph Pages: 1 -->
<svg width="1322pt" height="2250pt"
 viewBox="0.00 0.00 1322.03 2250.00" xmlns="http://www.w3.org/2000/svg" xmlns:xlink="http://www.w3.org/1999/xlink">
<g id="graph0" class="graph" transform="scale(1 1) rotate(0) translate(4 2246)">
<title>network_graph</title>
<polygon fill="white" stroke="none" points="-4,4 -4,-2246 1318.03,-2246 1318.03,4 -4,4"/>
<!-- Combine929 -->
<g id="node1" class="node"><title>Combine929</title>
<polygon fill="lightgray" stroke="black" stroke-width="4" points="344,-191 250,-191 250,-119 344,-119 344,-191"/>
<text text-anchor="middle" x="297" y="-151.9" font-family="Times New Roman,serif" font-size="12.00">Combine</text>
</g>
<!-- Reshape862_Output_0 -->
<g id="node7" class="node"><title>Reshape862_Output_0</title>
<polygon fill="lightgray" stroke="black" stroke-width="4" points="65.6333,-0.0986735 68.7009,-0.29575 71.7368,-0.590689 74.7286,-0.982683 77.6641,-1.47066 80.5316,-2.05327 83.3198,-2.72894 86.0179,-3.49579 88.6155,-4.35174 91.103,-5.29443 93.4715,-6.32129 95.7127,-7.42949 97.8191,-8.616 99.7842,-9.87757 101.602,-11.2107 103.268,-12.6119 104.777,-14.0771 106.126,-15.6024 107.314,-17.1836 108.338,-18.8164 109.198,-20.4963 109.895,-22.2187 110.428,-23.9788 110.799,-25.7719 111.012,-27.5931 111.07,-29.4373 110.975,-31.2994 110.733,-33.1745 110.348,-35.0573 109.826,-36.9427 109.172,-38.8255 108.392,-40.7006 107.493,-42.5627 106.481,-44.4069 105.364,-46.2281 104.147,-48.0212 102.837,-49.7813 101.442,-51.5037 99.9679,-53.1836 98.4214,-54.8164 96.8088,-56.3976 95.1363,-57.9229 93.4099,-59.3881 91.6351,-60.7893 89.8173,-62.1224 87.9614,-63.384 86.0722,-64.5705 84.1538,-65.6787 82.2102,-66.7056 80.245,-67.6483 78.2615,-68.5042 76.2625,-69.2711 74.2507,-69.9467 72.2283,-70.5293 70.1975,-71.0173 68.1601,-71.4093 66.1177,-71.7042 64.072,-71.9013 62.0242,-72 59.9758,-72 57.928,-71.9013 55.8823,-71.7042 53.8399,-71.4093 51.8025,-71.0173 49.7717,-70.5293 47.7493,-69.9467 45.7375,-69.2711 43.7385,-68.5042 41.755,-67.6483 39.7898,-66.7056 37.8462,-65.6787 35.9278,-64.5705 34.0386,-63.384 32.1827,-62.1224 30.3649,-60.7893 28.5901,-59.3881 26.8637,-57.9229 25.1912,-56.3976 23.5786,-54.8164 22.0321,-53.1836 20.5579,-51.5037 19.1628,-49.7813 17.8533,-48.0212 16.6363,-46.2281 15.5186,-44.4069 14.5069,-42.5627 13.608,-40.7006 12.8284,-38.8255 12.1743,-36.9427 11.652,-35.0573 11.267,-33.1745 11.0248,-31.2994 10.9302,-29.4373 10.9875,-27.5931 11.2005,-25.7719 11.5723,-23.9788 12.1055,-22.2187 12.8016,-20.4963 13.6616,-18.8164 14.6859,-17.1836 15.8735,-15.6024 17.2232,-14.0771 18.7324,-12.6119 20.398,-11.2107 22.2158,-9.87757 24.1809,-8.616 26.2873,-7.42949 28.5285,-6.32129 30.897,-5.29443 33.3845,-4.35174 35.9821,-3.49579 38.6802,-2.72894 41.4684,-2.05327 44.3359,-1.47066 47.2714,-0.982683 50.2632,-0.590689 53.2991,-0.29575 56.3667,-0.0986735 59.4534,-3.55271e-013 62.5466,-3.69482e-013 65.6333,-0.0986735"/>
<text text-anchor="middle" x="61" y="-25.9" font-family="Times New Roman,serif" font-size="12.00">[#](1000,)</text>
</g>
<!-- Combine929&#45;&gt;Reshape862_Output_0 -->
<g id="edge6" class="edge"><title>Combine929&#45;&gt;Reshape862_Output_0</title>
<path fill="none" stroke="black" d="M249.786,-133.694C213.762,-117.825 163.152,-94.72 120,-72 114.802,-69.263 109.416,-66.2813 104.108,-63.2508"/>
<polygon fill="black" stroke="black" points="105.702,-60.1293 95.2962,-58.1391 102.19,-66.1843 105.702,-60.1293"/>
<text text-anchor="middle" x="197" y="-93" font-family="Times New Roman,serif" font-size="10.00">[#](1000,)</text>
</g>
<!-- Block876_Output_0 -->
<g id="node8" class="node"><title>Block876_Output_0</title>
<polygon fill="lightgray" stroke="black" stroke-width="4" points="183.633,-0.0986735 186.701,-0.29575 189.737,-0.590689 192.729,-0.982683 195.664,-1.47066 198.532,-2.05327 201.32,-2.72894 204.018,-3.49579 206.615,-4.35174 209.103,-5.29443 211.471,-6.32129 213.713,-7.42949 215.819,-8.616 217.784,-9.87757 219.602,-11.2107 221.268,-12.6119 222.777,-14.0771 224.126,-15.6024 225.314,-17.1836 226.338,-18.8164 227.198,-20.4963 227.895,-22.2187 228.428,-23.9788 228.799,-25.7719 229.012,-27.5931 229.07,-29.4373 228.975,-31.2994 228.733,-33.1745 228.348,-35.0573 227.826,-36.9427 227.172,-38.8255 226.392,-40.7006 225.493,-42.5627 224.481,-44.4069 223.364,-46.2281 222.147,-48.0212 220.837,-49.7813 219.442,-51.5037 217.968,-53.1836 216.421,-54.8164 214.809,-56.3976 213.136,-57.9229 211.41,-59.3881 209.635,-60.7893 207.817,-62.1224 205.961,-63.384 204.072,-64.5705 202.154,-65.6787 200.21,-66.7056 198.245,-67.6483 196.261,-68.5042 194.262,-69.2711 192.251,-69.9467 190.228,-70.5293 188.197,-71.0173 186.16,-71.4093 184.118,-71.7042 182.072,-71.9013 180.024,-72 177.976,-72 175.928,-71.9013 173.882,-71.7042 171.84,-71.4093 169.803,-71.0173 167.772,-70.5293 165.749,-69.9467 163.738,-69.2711 161.739,-68.5042 159.755,-67.6483 157.79,-66.7056 155.846,-65.6787 153.928,-64.5705 152.039,-63.384 150.183,-62.1224 148.365,-60.7893 146.59,-59.3881 144.864,-57.9229 143.191,-56.3976 141.579,-54.8164 140.032,-53.1836 138.558,-51.5037 137.163,-49.7813 135.853,-48.0212 134.636,-46.2281 133.519,-44.4069 132.507,-42.5627 131.608,-40.7006 130.828,-38.8255 130.174,-36.9427 129.652,-35.0573 129.267,-33.1745 129.025,-31.2994 128.93,-29.4373 128.988,-27.5931 129.201,-25.7719 129.572,-23.9788 130.105,-22.2187 130.802,-20.4963 131.662,-18.8164 132.686,-17.1836 133.874,-15.6024 135.223,-14.0771 136.732,-12.6119 138.398,-11.2107 140.216,-9.87757 142.181,-8.616 144.287,-7.42949 146.529,-6.32129 148.897,-5.29443 151.385,-4.35174 153.982,-3.49579 156.68,-2.72894 159.468,-2.05327 162.336,-1.47066 165.271,-0.982683 168.263,-0.590689 171.299,-0.29575 174.367,-0.0986735 177.453,-3.55271e-013 180.547,-3.69482e-013 183.633,-0.0986735"/>
<text text-anchor="middle" x="179" y="-39.4" font-family="Times New Roman,serif" font-size="12.00">model_output</text>
<text text-anchor="middle" x="179" y="-26.4" font-family="Times New Roman,serif" font-size="12.00">[#](1,)</text>
</g>
<!-- Combine929&#45;&gt;Block876_Output_0 -->
<g id="edge7" class="edge"><title>Combine929&#45;&gt;Block876_Output_0</title>
<path fill="none" stroke="black" d="M261.596,-118.896C246.194,-103.625 228.224,-85.8072 212.986,-70.6982"/>
<polygon fill="black" stroke="black" points="215.314,-68.0772 205.748,-63.5217 210.385,-73.048 215.314,-68.0772"/>
<text text-anchor="middle" x="254.5" y="-93" font-family="Times New Roman,serif" font-size="10.00">[#](1,)</text>
</g>
<!-- ReduceElements926_Output_0 -->
<g id="node9" class="node"><title>ReduceElements926_Output_0</title>
<polygon fill="lightgray" stroke="black" stroke-width="4" points="301.633,-0.0986735 304.701,-0.29575 307.737,-0.590689 310.729,-0.982683 313.664,-1.47066 316.532,-2.05327 319.32,-2.72894 322.018,-3.49579 324.615,-4.35174 327.103,-5.29443 329.471,-6.32129 331.713,-7.42949 333.819,-8.616 335.784,-9.87757 337.602,-11.2107 339.268,-12.6119 340.777,-14.0771 342.126,-15.6024 343.314,-17.1836 344.338,-18.8164 345.198,-20.4963 345.895,-22.2187 346.428,-23.9788 346.799,-25.7719 347.012,-27.5931 347.07,-29.4373 346.975,-31.2994 346.733,-33.1745 346.348,-35.0573 345.826,-36.9427 345.172,-38.8255 344.392,-40.7006 343.493,-42.5627 342.481,-44.4069 341.364,-46.2281 340.147,-48.0212 338.837,-49.7813 337.442,-51.5037 335.968,-53.1836 334.421,-54.8164 332.809,-56.3976 331.136,-57.9229 329.41,-59.3881 327.635,-60.7893 325.817,-62.1224 323.961,-63.384 322.072,-64.5705 320.154,-65.6787 318.21,-66.7056 316.245,-67.6483 314.261,-68.5042 312.262,-69.2711 310.251,-69.9467 308.228,-70.5293 306.197,-71.0173 304.16,-71.4093 302.118,-71.7042 300.072,-71.9013 298.024,-72 295.976,-72 293.928,-71.9013 291.882,-71.7042 289.84,-71.4093 287.803,-71.0173 285.772,-70.5293 283.749,-69.9467 281.738,-69.2711 279.739,-68.5042 277.755,-67.6483 275.79,-66.7056 273.846,-65.6787 271.928,-64.5705 270.039,-63.384 268.183,-62.1224 266.365,-60.7893 264.59,-59.3881 262.864,-57.9229 261.191,-56.3976 259.579,-54.8164 258.032,-53.1836 256.558,-51.5037 255.163,-49.7813 253.853,-48.0212 252.636,-46.2281 251.519,-44.4069 250.507,-42.5627 249.608,-40.7006 248.828,-38.8255 248.174,-36.9427 247.652,-35.0573 247.267,-33.1745 247.025,-31.2994 246.93,-29.4373 246.988,-27.5931 247.201,-25.7719 247.572,-23.9788 248.105,-22.2187 248.802,-20.4963 249.662,-18.8164 250.686,-17.1836 251.874,-15.6024 253.223,-14.0771 254.732,-12.6119 256.398,-11.2107 258.216,-9.87757 260.181,-8.616 262.287,-7.42949 264.529,-6.32129 266.897,-5.29443 269.385,-4.35174 271.982,-3.49579 274.68,-2.72894 277.468,-2.05327 280.336,-1.47066 283.271,-0.982683 286.263,-0.590689 289.299,-0.29575 292.367,-0.0986735 295.453,-3.55271e-013 298.547,-3.69482e-013 301.633,-0.0986735"/>
<text text-anchor="middle" x="297" y="-39.4" font-family="Times New Roman,serif" font-size="12.00">aggregateLoss</text>
<text text-anchor="middle" x="297" y="-26.4" font-family="Times New Roman,serif" font-size="12.00">()</text>
</g>
<!-- Combine929&#45;&gt;ReduceElements926_Output_0 -->
<g id="edge8" class="edge"><title>Combine929&#45;&gt;ReduceElements926_Output_0</title>
<path fill="none" stroke="black" d="M297,-118.896C297,-107.327 297,-94.2965 297,-82.0893"/>
<polygon fill="black" stroke="black" points="300.5,-82.079 297,-72.0791 293.5,-82.0791 300.5,-82.079"/>
<text text-anchor="middle" x="300.5" y="-93" font-family="Times New Roman,serif" font-size="10.00">()</text>
</g>
<!-- Block897_Output_0 -->
<g id="node10" class="node"><title>Block897_Output_0</title>
<polygon fill="lightgray" stroke="black" stroke-width="4" points="419.633,-0.0986735 422.701,-0.29575 425.737,-0.590689 428.729,-0.982683 431.664,-1.47066 434.532,-2.05327 437.32,-2.72894 440.018,-3.49579 442.615,-4.35174 445.103,-5.29443 447.471,-6.32129 449.713,-7.42949 451.819,-8.616 453.784,-9.87757 455.602,-11.2107 457.268,-12.6119 458.777,-14.0771 460.126,-15.6024 461.314,-17.1836 462.338,-18.8164 463.198,-20.4963 463.895,-22.2187 464.428,-23.9788 464.799,-25.7719 465.012,-27.5931 465.07,-29.4373 464.975,-31.2994 464.733,-33.1745 464.348,-35.0573 463.826,-36.9427 463.172,-38.8255 462.392,-40.7006 461.493,-42.5627 460.481,-44.4069 459.364,-46.2281 458.147,-48.0212 456.837,-49.7813 455.442,-51.5037 453.968,-53.1836 452.421,-54.8164 450.809,-56.3976 449.136,-57.9229 447.41,-59.3881 445.635,-60.7893 443.817,-62.1224 441.961,-63.384 440.072,-64.5705 438.154,-65.6787 436.21,-66.7056 434.245,-67.6483 432.261,-68.5042 430.262,-69.2711 428.251,-69.9467 426.228,-70.5293 424.197,-71.0173 422.16,-71.4093 420.118,-71.7042 418.072,-71.9013 416.024,-72 413.976,-72 411.928,-71.9013 409.882,-71.7042 407.84,-71.4093 405.803,-71.0173 403.772,-70.5293 401.749,-69.9467 399.738,-69.2711 397.739,-68.5042 395.755,-67.6483 393.79,-66.7056 391.846,-65.6787 389.928,-64.5705 388.039,-63.384 386.183,-62.1224 384.365,-60.7893 382.59,-59.3881 380.864,-57.9229 379.191,-56.3976 377.579,-54.8164 376.032,-53.1836 374.558,-51.5037 373.163,-49.7813 371.853,-48.0212 370.636,-46.2281 369.519,-44.4069 368.507,-42.5627 367.608,-40.7006 366.828,-38.8255 366.174,-36.9427 365.652,-35.0573 365.267,-33.1745 365.025,-31.2994 364.93,-29.4373 364.988,-27.5931 365.201,-25.7719 365.572,-23.9788 366.105,-22.2187 366.802,-20.4963 367.662,-18.8164 368.686,-17.1836 369.874,-15.6024 371.223,-14.0771 372.732,-12.6119 374.398,-11.2107 376.216,-9.87757 378.181,-8.616 380.287,-7.42949 382.529,-6.32129 384.897,-5.29443 387.385,-4.35174 389.982,-3.49579 392.68,-2.72894 395.468,-2.05327 398.336,-1.47066 401.271,-0.982683 404.263,-0.590689 407.299,-0.29575 410.367,-0.0986735 413.453,-3.55271e-013 416.547,-3.69482e-013 419.633,-0.0986735"/>
<text text-anchor="middle" x="415" y="-25.9" font-family="Times New Roman,serif" font-size="12.00">[#](1,)</text>
</g>
<!-- Combine929&#45;&gt;Block897_Output_0 -->
<g id="edge9" class="edge"><title>Combine929&#45;&gt;Block897_Output_0</title>
<path fill="none" stroke="black" d="M332.404,-118.896C347.806,-103.625 365.776,-85.8072 381.014,-70.6982"/>
<polygon fill="black" stroke="black" points="383.615,-73.048 388.252,-63.5217 378.686,-68.0772 383.615,-73.048"/>
<text text-anchor="middle" x="371.5" y="-93" font-family="Times New Roman,serif" font-size="10.00">[#](1,)</text>
</g>
<!-- ReduceElements923_Output_0 -->
<g id="node11" class="node"><title>ReduceElements923_Output_0</title>
<polygon fill="lightgray" stroke="black" stroke-width="4" points="537.633,-0.0986735 540.701,-0.29575 543.737,-0.590689 546.729,-0.982683 549.664,-1.47066 552.532,-2.05327 555.32,-2.72894 558.018,-3.49579 560.615,-4.35174 563.103,-5.29443 565.471,-6.32129 567.713,-7.42949 569.819,-8.616 571.784,-9.87757 573.602,-11.2107 575.268,-12.6119 576.777,-14.0771 578.126,-15.6024 579.314,-17.1836 580.338,-18.8164 581.198,-20.4963 581.895,-22.2187 582.428,-23.9788 582.799,-25.7719 583.012,-27.5931 583.07,-29.4373 582.975,-31.2994 582.733,-33.1745 582.348,-35.0573 581.826,-36.9427 581.172,-38.8255 580.392,-40.7006 579.493,-42.5627 578.481,-44.4069 577.364,-46.2281 576.147,-48.0212 574.837,-49.7813 573.442,-51.5037 571.968,-53.1836 570.421,-54.8164 568.809,-56.3976 567.136,-57.9229 565.41,-59.3881 563.635,-60.7893 561.817,-62.1224 559.961,-63.384 558.072,-64.5705 556.154,-65.6787 554.21,-66.7056 552.245,-67.6483 550.261,-68.5042 548.262,-69.2711 546.251,-69.9467 544.228,-70.5293 542.197,-71.0173 540.16,-71.4093 538.118,-71.7042 536.072,-71.9013 534.024,-72 531.976,-72 529.928,-71.9013 527.882,-71.7042 525.84,-71.4093 523.803,-71.0173 521.772,-70.5293 519.749,-69.9467 517.738,-69.2711 515.739,-68.5042 513.755,-67.6483 511.79,-66.7056 509.846,-65.6787 507.928,-64.5705 506.039,-63.384 504.183,-62.1224 502.365,-60.7893 500.59,-59.3881 498.864,-57.9229 497.191,-56.3976 495.579,-54.8164 494.032,-53.1836 492.558,-51.5037 491.163,-49.7813 489.853,-48.0212 488.636,-46.2281 487.519,-44.4069 486.507,-42.5627 485.608,-40.7006 484.828,-38.8255 484.174,-36.9427 483.652,-35.0573 483.267,-33.1745 483.025,-31.2994 482.93,-29.4373 482.988,-27.5931 483.201,-25.7719 483.572,-23.9788 484.105,-22.2187 484.802,-20.4963 485.662,-18.8164 486.686,-17.1836 487.874,-15.6024 489.223,-14.0771 490.732,-12.6119 492.398,-11.2107 494.216,-9.87757 496.181,-8.616 498.287,-7.42949 500.529,-6.32129 502.897,-5.29443 505.385,-4.35174 507.982,-3.49579 510.68,-2.72894 513.468,-2.05327 516.336,-1.47066 519.271,-0.982683 522.263,-0.590689 525.299,-0.29575 528.367,-0.0986735 531.453,-3.55271e-013 534.547,-3.69482e-013 537.633,-0.0986735"/>
<text text-anchor="middle" x="533" y="-39.4" font-family="Times New Roman,serif" font-size="12.00">aggregateEvalMetric</text>
<text text-anchor="middle" x="533" y="-26.4" font-family="Times New Roman,serif" font-size="12.00">()</text>
</g>
<!-- Combine929&#45;&gt;ReduceElements923_Output_0 -->
<g id="edge10" class="edge"><title>Combine929&#45;&gt;ReduceElements923_Output_0</title>
<path fill="none" stroke="black" d="M344.214,-133.694C380.238,-117.825 430.848,-94.72 474,-72 479.198,-69.263 484.584,-66.2813 489.892,-63.2508"/>
<polygon fill="black" stroke="black" points="491.81,-66.1843 498.704,-58.1391 488.298,-60.1293 491.81,-66.1843"/>
<text text-anchor="middle" x="438.5" y="-93" font-family="Times New Roman,serif" font-size="10.00">()</text>
</g>
<!-- Reshape862 -->
<g id="node2" class="node"><title>Reshape862</title>
<polygon fill="lightgray" stroke="black" stroke-width="4" points="178,-537.5 122,-537.5 122,-494.5 178,-494.5 178,-537.5"/>
<text text-anchor="middle" x="150" y="-512.9" font-family="Times New Roman,serif" font-size="12.00">Reshape</text>
</g>
<!-- Reshape862&#45;&gt;Combine929 -->
<g id="edge1" class="edge"><title>Reshape862&#45;&gt;Combine929</title>
<path fill="none" stroke="black" d="M138.131,-494.358C118.267,-457.081 82.3992,-376.247 103,-310 122.955,-245.83 190.84,-202.618 240.701,-178.688"/>
<polygon fill="black" stroke="black" points="242.207,-181.848 249.786,-174.444 239.244,-175.506 242.207,-181.848"/>
<text text-anchor="middle" x="149" y="-324" font-family="Times New Roman,serif" font-size="10.00">Reshape862_Output_0</text>
<text text-anchor="middle" x="149" y="-313" font-family="Times New Roman,serif" font-size="10.00">[#](1000,)</text>
</g>
<!-- Block876 -->
<g id="node3" class="node"><title>Block876</title>
<polygon fill="lightgray" stroke="black" stroke-width="4" points="488,-422 394,-422 394,-350 488,-350 488,-422"/>
<text text-anchor="middle" x="441" y="-389.4" font-family="Times New Roman,serif" font-size="12.00">CrossEntropyWithSoftmax</text>
<text text-anchor="middle" x="441" y="-376.4" font-family="Times New Roman,serif" font-size="12.00">model_output()</text>
</g>
<!-- Reshape862&#45;&gt;Block876 -->
<g id="edge46" class="edge"><title>Reshape862&#45;&gt;Block876</title>
<path fill="none" stroke="black" d="M178.018,-502.189C197.345,-492.622 223.048,-478.407 243,-462 252.979,-453.794 251.145,-447.006 262,-440 282.316,-426.887 339.762,-411.055 384.152,-400.127"/>
<polygon fill="black" stroke="black" points="385.089,-403.502 393.978,-397.736 383.434,-396.7 385.089,-403.502"/>
<text text-anchor="middle" x="308" y="-454" font-family="Times New Roman,serif" font-size="10.00">Reshape862_Output_0</text>
<text text-anchor="middle" x="308" y="-443" font-family="Times New Roman,serif" font-size="10.00">[#](1000,)</text>
</g>
<!-- Block897 -->
<g id="node5" class="node"><title>Block897</title>
<polygon fill="lightgray" stroke="black" stroke-width="4" points="296,-422 202,-422 202,-350 296,-350 296,-422"/>
<text text-anchor="middle" x="249" y="-382.9" font-family="Times New Roman,serif" font-size="12.00">ClassificationError</text>
</g>
<!-- Reshape862&#45;&gt;Block897 -->
<g id="edge49" class="edge"><title>Reshape862&#45;&gt;Block897</title>
<path fill="none" stroke="black" d="M144.943,-494.368C142.216,-478.373 141.157,-456.266 151,-440 160.418,-424.437 176.141,-413.156 192.266,-405.111"/>
<polygon fill="black" stroke="black" points="194.142,-408.101 201.763,-400.741 191.215,-401.742 194.142,-408.101"/>
<text text-anchor="middle" x="197" y="-454" font-family="Times New Roman,serif" font-size="10.00">Reshape862_Output_0</text>
<text text-anchor="middle" x="197" y="-443" font-family="Times New Roman,serif" font-size="10.00">[#](1000,)</text>
</g>
<!-- Block876&#45;&gt;Combine929 -->
<g id="edge2" class="edge"><title>Block876&#45;&gt;Combine929</title>
<path fill="none" stroke="black" d="M488.261,-351.903C493.819,-345.94 498.683,-339.276 502,-332 509.183,-316.243 507.056,-271.661 496,-249 470.187,-196.094 403.149,-173.177 353.987,-163.319"/>
<polygon fill="black" stroke="black" points="354.574,-159.868 344.1,-161.462 353.282,-166.748 354.574,-159.868"/>
<text text-anchor="middle" x="533.5" y="-273.5" font-family="Times New Roman,serif" font-size="10.00">model_output</text>
<text text-anchor="middle" x="533.5" y="-262.5" font-family="Times New Roman,serif" font-size="10.00">[#](1,)</text>
</g>
<!-- ReduceElements926 -->
<g id="node4" class="node"><title>ReduceElements926</title>
<polygon fill="lightgray" stroke="black" stroke-width="4" points="487,-292 395,-292 395,-249 487,-249 487,-292"/>
<text text-anchor="middle" x="441" y="-267.4" font-family="Times New Roman,serif" font-size="12.00">ReduceElements</text>
</g>
<!-- Block876&#45;&gt;ReduceElements926 -->
<g id="edge48" class="edge"><title>Block876&#45;&gt;ReduceElements926</title>
<path fill="none" stroke="black" d="M441,-349.71C441,-334.524 441,-316.934 441,-302.286"/>
<polygon fill="black" stroke="black" points="444.5,-302.217 441,-292.217 437.5,-302.217 444.5,-302.217"/>
<text text-anchor="middle" x="469.5" y="-324" font-family="Times New Roman,serif" font-size="10.00">model_output</text>
<text text-anchor="middle" x="469.5" y="-313" font-family="Times New Roman,serif" font-size="10.00">[#](1,)</text>
</g>
<!-- ReduceElements926&#45;&gt;Combine929 -->
<g id="edge3" class="edge"><title>ReduceElements926&#45;&gt;Combine929</title>
<path fill="none" stroke="black" d="M414.923,-248.946C396.732,-234.608 371.83,-214.981 349.596,-197.456"/>
<polygon fill="black" stroke="black" points="351.563,-194.55 341.543,-191.108 347.23,-200.047 351.563,-194.55"/>
<text text-anchor="middle" x="420" y="-223" font-family="Times New Roman,serif" font-size="10.00">aggregateLoss</text>
<text text-anchor="middle" x="420" y="-212" font-family="Times New Roman,serif" font-size="10.00">()</text>
</g>
<!-- Block897&#45;&gt;Combine929 -->
<g id="edge4" class="edge"><title>Block897&#45;&gt;Combine929</title>
<path fill="none" stroke="black" d="M274.923,-349.712C278.124,-344.015 280.976,-338.009 283,-332 297.382,-289.301 299.863,-237.612 299.369,-201.333"/>
<polygon fill="black" stroke="black" points="302.863,-200.985 299.145,-191.064 295.864,-201.138 302.863,-200.985"/>
<text text-anchor="middle" x="338" y="-273.5" font-family="Times New Roman,serif" font-size="10.00">Block897_Output_0</text>
<text text-anchor="middle" x="338" y="-262.5" font-family="Times New Roman,serif" font-size="10.00">[#](1,)</text>
</g>
<!-- ReduceElements923 -->
<g id="node6" class="node"><title>ReduceElements923</title>
<polygon fill="lightgray" stroke="black" stroke-width="4" points="246,-292 154,-292 154,-249 246,-249 246,-292"/>
<text text-anchor="middle" x="200" y="-267.4" font-family="Times New Roman,serif" font-size="12.00">ReduceElements</text>
</g>
<!-- Block897&#45;&gt;ReduceElements923 -->
<g id="edge51" class="edge"><title>Block897&#45;&gt;ReduceElements923</title>
<path fill="none" stroke="black" d="M213.079,-349.787C209.048,-344.21 205.499,-338.218 203,-332 199.285,-322.756 197.908,-312.069 197.648,-302.272"/>
<polygon fill="black" stroke="black" points="201.15,-302.135 197.747,-292.102 194.15,-302.067 201.15,-302.135"/>
<text text-anchor="middle" x="243" y="-324" font-family="Times New Roman,serif" font-size="10.00">Block897_Output_0</text>
<text text-anchor="middle" x="243" y="-313" font-family="Times New Roman,serif" font-size="10.00">[#](1,)</text>
</g>
<!-- ReduceElements923&#45;&gt;Combine929 -->
<g id="edge5" class="edge"><title>ReduceElements923&#45;&gt;Combine929</title>
<path fill="none" stroke="black" d="M194.478,-248.768C192.381,-236.386 191.954,-220.821 199,-209 208.355,-193.305 224.149,-181.977 240.357,-173.929"/>
<polygon fill="black" stroke="black" points="242.265,-176.905 249.902,-169.562 239.352,-170.54 242.265,-176.905"/>
<text text-anchor="middle" x="241" y="-223" font-family="Times New Roman,serif" font-size="10.00">aggregateEvalMetric</text>
<text text-anchor="middle" x="241" y="-212" font-family="Times New Roman,serif" font-size="10.00">()</text>
</g>
<!-- Block785 -->
<g id="node12" class="node"><title>Block785</title>
<polygon fill="lightgray" stroke="black" stroke-width="4" points="197,-682 103,-682 103,-610 197,-610 197,-682"/>
<text text-anchor="middle" x="150" y="-642.9" font-family="Times New Roman,serif" font-size="12.00">AveragePooling</text>
</g>
<!-- Block785&#45;&gt;Reshape862 -->
<g id="edge11" class="edge"><title>Block785&#45;&gt;Reshape862</title>
<path fill="none" stroke="black" d="M150,-609.685C150,-590.295 150,-566.476 150,-547.84"/>
<polygon fill="black" stroke="black" points="153.5,-547.81 150,-537.81 146.5,-547.81 153.5,-547.81"/>
<text text-anchor="middle" x="190" y="-584" font-family="Times New Roman,serif" font-size="10.00">Block785_Output_0</text>
<text text-anchor="middle" x="190" y="-573" font-family="Times New Roman,serif" font-size="10.00">[#](1000, 1, 1)</text>
</g>
<!-- Block693 -->
<g id="node13" class="node"><title>Block693</title>
<polygon fill="lightgray" stroke="black" stroke-width="4" points="197,-812 103,-812 103,-740 197,-740 197,-812"/>
<text text-anchor="middle" x="150" y="-772.9" font-family="Times New Roman,serif" font-size="12.00">Convolution</text>
</g>
<!-- Block693&#45;&gt;Block785 -->
<g id="edge12" class="edge"><title>Block693&#45;&gt;Block785</title>
<path fill="none" stroke="black" d="M150,-739.685C150,-725.135 150,-708.091 150,-692.614"/>
<polygon fill="black" stroke="black" points="153.5,-692.2 150,-682.2 146.5,-692.2 153.5,-692.2"/>
<text text-anchor="middle" x="190" y="-714" font-family="Times New Roman,serif" font-size="10.00">Block693_Output_0</text>
<text text-anchor="middle" x="190" y="-703" font-family="Times New Roman,serif" font-size="10.00">[#](1000, 4, 4)</text>
</g>
<!-- Parameter660 -->
<g id="node14" class="node"><title>Parameter660</title>
<polygon fill="lightgray" stroke="black" points="96,-927.5 0,-927.5 0,-884.5 96,-884.5 96,-927.5"/>
<text text-anchor="middle" x="48" y="-909.4" font-family="Times New Roman,serif" font-size="12.00">W</text>
<text text-anchor="middle" x="48" y="-896.4" font-family="Times New Roman,serif" font-size="12.00">(1000, 512, 1, 1)</text>
</g>
<!-- Parameter660&#45;&gt;Block693 -->
<g id="edge13" class="edge"><title>Parameter660&#45;&gt;Block693</title>
<path fill="none" stroke="black" d="M55.4391,-884.215C61.7566,-868.343 71.885,-846.469 85,-830 88.2059,-825.974 91.7656,-822.05 95.5202,-818.276"/>
<polygon fill="black" stroke="black" points="98.1079,-820.645 102.939,-811.216 93.2822,-815.574 98.1079,-820.645"/>
<text text-anchor="middle" x="115.5" y="-844" font-family="Times New Roman,serif" font-size="10.00">W</text>
<text text-anchor="middle" x="115.5" y="-833" font-family="Times New Roman,serif" font-size="10.00">(1000, 512, 1, 1)</text>
</g>
<!-- Parameter661 -->
<g id="node15" class="node"><title>Parameter661</title>
<polygon fill="lightgray" stroke="black" points="186,-927.5 114,-927.5 114,-884.5 186,-884.5 186,-927.5"/>
<text text-anchor="middle" x="150" y="-909.4" font-family="Times New Roman,serif" font-size="12.00">b</text>
<text text-anchor="middle" x="150" y="-896.4" font-family="Times New Roman,serif" font-size="12.00">(1000, 1, 1)</text>
</g>
<!-- Parameter661&#45;&gt;Block693 -->
<g id="edge14" class="edge"><title>Parameter661&#45;&gt;Block693</title>
<path fill="none" stroke="black" d="M150,-884.435C150,-867.673 150,-843.385 150,-822.141"/>
<polygon fill="black" stroke="black" points="153.5,-822.003 150,-812.003 146.5,-822.003 153.5,-822.003"/>
<text text-anchor="middle" x="171.5" y="-844" font-family="Times New Roman,serif" font-size="10.00">b</text>
<text text-anchor="middle" x="171.5" y="-833" font-family="Times New Roman,serif" font-size="10.00">(1000, 1, 1)</text>
</g>
<!-- Block593 -->
<g id="node16" class="node"><title>Block593</title>
<polygon fill="lightgray" stroke="black" stroke-width="4" points="298,-942 204,-942 204,-870 298,-870 298,-942"/>
<text text-anchor="middle" x="251" y="-902.9" font-family="Times New Roman,serif" font-size="12.00">Convolution</text>
</g>
<!-- Block593&#45;&gt;Block693 -->
<g id="edge15" class="edge"><title>Block593&#45;&gt;Block693</title>
<path fill="none" stroke="black" d="M226.717,-869.727C217.664,-856.997 207.123,-842.654 197,-830 194.364,-826.705 191.59,-823.341 188.763,-819.986"/>
<polygon fill="black" stroke="black" points="191.27,-817.532 182.109,-812.21 185.951,-822.083 191.27,-817.532"/>
<text text-anchor="middle" x="253" y="-844" font-family="Times New Roman,serif" font-size="10.00">Block593_Output_0</text>
<text text-anchor="middle" x="253" y="-833" font-family="Times New Roman,serif" font-size="10.00">[#](512, 4, 4)</text>
</g>
<!-- Parameter560 -->
<g id="node17" class="node"><title>Parameter560</title>
<polygon fill="lightgray" stroke="black" points="197,-1057.5 107,-1057.5 107,-1014.5 197,-1014.5 197,-1057.5"/>
<text text-anchor="middle" x="152" y="-1039.4" font-family="Times New Roman,serif" font-size="12.00">W</text>
<text text-anchor="middle" x="152" y="-1026.4" font-family="Times New Roman,serif" font-size="12.00">(512, 256, 5, 5)</text>
</g>
<!-- Parameter560&#45;&gt;Block593 -->
<g id="edge16" class="edge"><title>Parameter560&#45;&gt;Block593</title>
<path fill="none" stroke="black" d="M160.247,-1014.38C167.124,-998.601 177.896,-976.767 191,-960 193.771,-956.455 196.801,-952.958 199.979,-949.555"/>
<polygon fill="black" stroke="black" points="202.623,-951.859 207.133,-942.272 197.629,-946.954 202.623,-951.859"/>
<text text-anchor="middle" x="219" y="-974" font-family="Times New Roman,serif" font-size="10.00">W</text>
<text text-anchor="middle" x="219" y="-963" font-family="Times New Roman,serif" font-size="10.00">(512, 256, 5, 5)</text>
</g>
<!-- Parameter561 -->
<g id="node18" class="node"><title>Parameter561</title>
<polygon fill="lightgray" stroke="black" points="287,-1057.5 215,-1057.5 215,-1014.5 287,-1014.5 287,-1057.5"/>
<text text-anchor="middle" x="251" y="-1039.4" font-family="Times New Roman,serif" font-size="12.00">b</text>
<text text-anchor="middle" x="251" y="-1026.4" font-family="Times New Roman,serif" font-size="12.00">(512, 1, 1)</text>
</g>
<!-- Parameter561&#45;&gt;Block593 -->
<g id="edge17" class="edge"><title>Parameter561&#45;&gt;Block593</title>
<path fill="none" stroke="black" d="M251,-1014.43C251,-997.673 251,-973.385 251,-952.141"/>
<polygon fill="black" stroke="black" points="254.5,-952.003 251,-942.003 247.5,-952.003 254.5,-952.003"/>
<text text-anchor="middle" x="270" y="-974" font-family="Times New Roman,serif" font-size="10.00">b</text>
<text text-anchor="middle" x="270" y="-963" font-family="Times New Roman,serif" font-size="10.00">(512, 1, 1)</text>
</g>
<!-- Block503 -->
<g id="node19" class="node"><title>Block503</title>
<polygon fill="lightgray" stroke="black" stroke-width="4" points="399,-1072 305,-1072 305,-1000 399,-1000 399,-1072"/>
<text text-anchor="middle" x="352" y="-1032.9" font-family="Times New Roman,serif" font-size="12.00">BatchNormalization</text>
</g>
<!-- Block503&#45;&gt;Block593 -->
<g id="edge18" class="edge"><title>Block503&#45;&gt;Block593</title>
<path fill="none" stroke="black" d="M324.411,-999.877C314.515,-987.291 303.266,-973.003 293,-960 290.422,-956.735 287.753,-953.358 285.067,-949.963"/>
<polygon fill="black" stroke="black" points="287.756,-947.721 278.806,-942.052 282.268,-952.065 287.756,-947.721"/>
<text text-anchor="middle" x="350" y="-974" font-family="Times New Roman,serif" font-size="10.00">Block503_Output_0</text>
<text text-anchor="middle" x="350" y="-963" font-family="Times New Roman,serif" font-size="10.00">[#](256, 8, 8)</text>
</g>
<!-- Parameter481 -->
<g id="node20" class="node"><title>Parameter481</title>
<polygon fill="lightgray" stroke="black" points="298,-1187.5 226,-1187.5 226,-1144.5 298,-1144.5 298,-1187.5"/>
<text text-anchor="middle" x="262" y="-1169.4" font-family="Times New Roman,serif" font-size="12.00">scale</text>
<text text-anchor="middle" x="262" y="-1156.4" font-family="Times New Roman,serif" font-size="12.00">(256,)</text>
</g>
<!-- Parameter481&#45;&gt;Block503 -->
<g id="edge19" class="edge"><title>Parameter481&#45;&gt;Block503</title>
<path fill="none" stroke="black" d="M276.46,-1144.43C288.567,-1127.22 306.259,-1102.05 321.477,-1080.41"/>
<polygon fill="black" stroke="black" points="324.5,-1082.2 327.389,-1072 318.774,-1078.17 324.5,-1082.2"/>
<text text-anchor="middle" x="324" y="-1104" font-family="Times New Roman,serif" font-size="10.00">scale</text>
<text text-anchor="middle" x="324" y="-1093" font-family="Times New Roman,serif" font-size="10.00">(256,)</text>
</g>
<!-- Parameter482 -->
<g id="node21" class="node"><title>Parameter482</title>
<polygon fill="lightgray" stroke="black" points="388,-1187.5 316,-1187.5 316,-1144.5 388,-1144.5 388,-1187.5"/>
<text text-anchor="middle" x="352" y="-1169.4" font-family="Times New Roman,serif" font-size="12.00">bias</text>
<text text-anchor="middle" x="352" y="-1156.4" font-family="Times New Roman,serif" font-size="12.00">(256,)</text>
</g>
<!-- Parameter482&#45;&gt;Block503 -->
<g id="edge20" class="edge"><title>Parameter482&#45;&gt;Block503</title>
<path fill="none" stroke="black" d="M352,-1144.43C352,-1127.67 352,-1103.38 352,-1082.14"/>
<polygon fill="black" stroke="black" points="355.5,-1082 352,-1072 348.5,-1082 355.5,-1082"/>
<text text-anchor="middle" x="363" y="-1104" font-family="Times New Roman,serif" font-size="10.00">bias</text>
<text text-anchor="middle" x="363" y="-1093" font-family="Times New Roman,serif" font-size="10.00">(256,)</text>
</g>
<!-- Block426 -->
<g id="node22" class="node"><title>Block426</title>
<polygon fill="lightgray" stroke="black" stroke-width="4" points="500,-1202 406,-1202 406,-1130 500,-1130 500,-1202"/>
<text text-anchor="middle" x="453" y="-1162.9" font-family="Times New Roman,serif" font-size="12.00">Convolution</text>
</g>
<!-- Block426&#45;&gt;Block503 -->
<g id="edge21" class="edge"><title>Block426&#45;&gt;Block503</title>
<path fill="none" stroke="black" d="M425.134,-1129.68C413.101,-1114.44 398.907,-1096.45 386.24,-1080.39"/>
<polygon fill="black" stroke="black" points="388.717,-1077.88 379.775,-1072.2 383.222,-1082.22 388.717,-1077.88"/>
<text text-anchor="middle" x="448" y="-1104" font-family="Times New Roman,serif" font-size="10.00">Block426_Output_0</text>
<text text-anchor="middle" x="448" y="-1093" font-family="Times New Roman,serif" font-size="10.00">[#](256, 8, 8)</text>
</g>
<!-- Parameter393 -->
<g id="node23" class="node"><title>Parameter393</title>
<polygon fill="lightgray" stroke="black" points="399,-1317.5 309,-1317.5 309,-1274.5 399,-1274.5 399,-1317.5"/>
<text text-anchor="middle" x="354" y="-1299.4" font-family="Times New Roman,serif" font-size="12.00">W</text>
<text text-anchor="middle" x="354" y="-1286.4" font-family="Times New Roman,serif" font-size="12.00">(256, 128, 5, 5)</text>
</g>
<!-- Parameter393&#45;&gt;Block426 -->
<g id="edge22" class="edge"><title>Parameter393&#45;&gt;Block426</title>
<path fill="none" stroke="black" d="M362.247,-1274.38C369.124,-1258.6 379.896,-1236.77 393,-1220 395.771,-1216.45 398.801,-1212.96 401.979,-1209.56"/>
<polygon fill="black" stroke="black" points="404.623,-1211.86 409.133,-1202.27 399.629,-1206.95 404.623,-1211.86"/>
<text text-anchor="middle" x="421" y="-1234" font-family="Times New Roman,serif" font-size="10.00">W</text>
<text text-anchor="middle" x="421" y="-1223" font-family="Times New Roman,serif" font-size="10.00">(256, 128, 5, 5)</text>
</g>
<!-- Parameter394 -->
<g id="node24" class="node"><title>Parameter394</title>
<polygon fill="lightgray" stroke="black" points="489,-1317.5 417,-1317.5 417,-1274.5 489,-1274.5 489,-1317.5"/>
<text text-anchor="middle" x="453" y="-1299.4" font-family="Times New Roman,serif" font-size="12.00">b</text>
<text text-anchor="middle" x="453" y="-1286.4" font-family="Times New Roman,serif" font-size="12.00">(256, 1, 1)</text>
</g>
<!-- Parameter394&#45;&gt;Block426 -->
<g id="edge23" class="edge"><title>Parameter394&#45;&gt;Block426</title>
<path fill="none" stroke="black" d="M453,-1274.43C453,-1257.67 453,-1233.38 453,-1212.14"/>
<polygon fill="black" stroke="black" points="456.5,-1212 453,-1202 449.5,-1212 456.5,-1212"/>
<text text-anchor="middle" x="472" y="-1234" font-family="Times New Roman,serif" font-size="10.00">b</text>
<text text-anchor="middle" x="472" y="-1223" font-family="Times New Roman,serif" font-size="10.00">(256, 1, 1)</text>
</g>
<!-- Block348 -->
<g id="node25" class="node"><title>Block348</title>
<polygon fill="lightgray" stroke="black" stroke-width="4" points="601,-1332 507,-1332 507,-1260 601,-1260 601,-1332"/>
<text text-anchor="middle" x="554" y="-1292.9" font-family="Times New Roman,serif" font-size="12.00">BatchNormalization</text>
</g>
<!-- Block348&#45;&gt;Block426 -->
<g id="edge24" class="edge"><title>Block348&#45;&gt;Block426</title>
<path fill="none" stroke="black" d="M526.411,-1259.88C516.515,-1247.29 505.266,-1233 495,-1220 492.422,-1216.73 489.753,-1213.36 487.067,-1209.96"/>
<polygon fill="black" stroke="black" points="489.756,-1207.72 480.806,-1202.05 484.268,-1212.07 489.756,-1207.72"/>
<text text-anchor="middle" x="551" y="-1234" font-family="Times New Roman,serif" font-size="10.00">Block348_Output_0</text>
<text text-anchor="middle" x="551" y="-1223" font-family="Times New Roman,serif" font-size="10.00">[#](128, 16, 16)</text>
</g>
<!-- Parameter326 -->
<g id="node26" class="node"><title>Parameter326</title>
<polygon fill="lightgray" stroke="black" points="500,-1447.5 428,-1447.5 428,-1404.5 500,-1404.5 500,-1447.5"/>
<text text-anchor="middle" x="464" y="-1429.4" font-family="Times New Roman,serif" font-size="12.00">scale</text>
<text text-anchor="middle" x="464" y="-1416.4" font-family="Times New Roman,serif" font-size="12.00">(128,)</text>
</g>
<!-- Parameter326&#45;&gt;Block348 -->
<g id="edge25" class="edge"><title>Parameter326&#45;&gt;Block348</title>
<path fill="none" stroke="black" d="M478.46,-1404.43C490.567,-1387.22 508.259,-1362.05 523.477,-1340.41"/>
<polygon fill="black" stroke="black" points="526.5,-1342.2 529.389,-1332 520.774,-1338.17 526.5,-1342.2"/>
<text text-anchor="middle" x="525" y="-1364" font-family="Times New Roman,serif" font-size="10.00">scale</text>
<text text-anchor="middle" x="525" y="-1353" font-family="Times New Roman,serif" font-size="10.00">(128,)</text>
</g>
<!-- Parameter327 -->
<g id="node27" class="node"><title>Parameter327</title>
<polygon fill="lightgray" stroke="black" points="590,-1447.5 518,-1447.5 518,-1404.5 590,-1404.5 590,-1447.5"/>
<text text-anchor="middle" x="554" y="-1429.4" font-family="Times New Roman,serif" font-size="12.00">bias</text>
<text text-anchor="middle" x="554" y="-1416.4" font-family="Times New Roman,serif" font-size="12.00">(128,)</text>
</g>
<!-- Parameter327&#45;&gt;Block348 -->
<g id="edge26" class="edge"><title>Parameter327&#45;&gt;Block348</title>
<path fill="none" stroke="black" d="M554,-1404.43C554,-1387.67 554,-1363.38 554,-1342.14"/>
<polygon fill="black" stroke="black" points="557.5,-1342 554,-1332 550.5,-1342 557.5,-1342"/>
<text text-anchor="middle" x="565" y="-1364" font-family="Times New Roman,serif" font-size="10.00">bias</text>
<text text-anchor="middle" x="565" y="-1353" font-family="Times New Roman,serif" font-size="10.00">(128,)</text>
</g>
<!-- Block283 -->
<g id="node28" class="node"><title>Block283</title>
<polygon fill="lightgray" stroke="black" stroke-width="4" points="702,-1462 608,-1462 608,-1390 702,-1390 702,-1462"/>
<text text-anchor="middle" x="655" y="-1422.9" font-family="Times New Roman,serif" font-size="12.00">Convolution</text>
</g>
<!-- Block283&#45;&gt;Block348 -->
<g id="edge27" class="edge"><title>Block283&#45;&gt;Block348</title>
<path fill="none" stroke="black" d="M627.134,-1389.68C615.101,-1374.44 600.907,-1356.45 588.24,-1340.39"/>
<polygon fill="black" stroke="black" points="590.717,-1337.88 581.775,-1332.2 585.222,-1342.22 590.717,-1337.88"/>
<text text-anchor="middle" x="650" y="-1364" font-family="Times New Roman,serif" font-size="10.00">Block283_Output_0</text>
<text text-anchor="middle" x="650" y="-1353" font-family="Times New Roman,serif" font-size="10.00">[#](128, 16, 16)</text>
</g>
<!-- Parameter250 -->
<g id="node29" class="node"><title>Parameter250</title>
<polygon fill="lightgray" stroke="black" points="601,-1577.5 517,-1577.5 517,-1534.5 601,-1534.5 601,-1577.5"/>
<text text-anchor="middle" x="559" y="-1559.4" font-family="Times New Roman,serif" font-size="12.00">W</text>
<text text-anchor="middle" x="559" y="-1546.4" font-family="Times New Roman,serif" font-size="12.00">(128, 64, 5, 5)</text>
</g>
<!-- Parameter250&#45;&gt;Block283 -->
<g id="edge28" class="edge"><title>Parameter250&#45;&gt;Block283</title>
<path fill="none" stroke="black" d="M567.871,-1534.2C575.07,-1518.52 586.116,-1496.9 599,-1480 601.675,-1476.49 604.589,-1473.01 607.636,-1469.6"/>
<polygon fill="black" stroke="black" points="610.203,-1471.98 614.479,-1462.29 605.091,-1467.2 610.203,-1471.98"/>
<text text-anchor="middle" x="625" y="-1494" font-family="Times New Roman,serif" font-size="10.00">W</text>
<text text-anchor="middle" x="625" y="-1483" font-family="Times New Roman,serif" font-size="10.00">(128, 64, 5, 5)</text>
</g>
<!-- Parameter251 -->
<g id="node30" class="node"><title>Parameter251</title>
<polygon fill="lightgray" stroke="black" points="691,-1577.5 619,-1577.5 619,-1534.5 691,-1534.5 691,-1577.5"/>
<text text-anchor="middle" x="655" y="-1559.4" font-family="Times New Roman,serif" font-size="12.00">b</text>
<text text-anchor="middle" x="655" y="-1546.4" font-family="Times New Roman,serif" font-size="12.00">(128, 1, 1)</text>
</g>
<!-- Parameter251&#45;&gt;Block283 -->
<g id="edge29" class="edge"><title>Parameter251&#45;&gt;Block283</title>
<path fill="none" stroke="black" d="M655,-1534.43C655,-1517.67 655,-1493.38 655,-1472.14"/>
<polygon fill="black" stroke="black" points="658.5,-1472 655,-1462 651.5,-1472 658.5,-1472"/>
<text text-anchor="middle" x="674" y="-1494" font-family="Times New Roman,serif" font-size="10.00">b</text>
<text text-anchor="middle" x="674" y="-1483" font-family="Times New Roman,serif" font-size="10.00">(128, 1, 1)</text>
</g>
<!-- Block217 -->
<g id="node31" class="node"><title>Block217</title>
<polygon fill="lightgray" stroke="black" stroke-width="4" points="803,-1592 709,-1592 709,-1520 803,-1520 803,-1592"/>
<text text-anchor="middle" x="756" y="-1552.9" font-family="Times New Roman,serif" font-size="12.00">BatchNormalization</text>
</g>
<!-- Block217&#45;&gt;Block283 -->
<g id="edge30" class="edge"><title>Block217&#45;&gt;Block283</title>
<path fill="none" stroke="black" d="M728.411,-1519.88C718.515,-1507.29 707.266,-1493 697,-1480 694.422,-1476.73 691.753,-1473.36 689.067,-1469.96"/>
<polygon fill="black" stroke="black" points="691.756,-1467.72 682.806,-1462.05 686.268,-1472.07 691.756,-1467.72"/>
<text text-anchor="middle" x="753" y="-1494" font-family="Times New Roman,serif" font-size="10.00">Block217_Output_0</text>
<text text-anchor="middle" x="753" y="-1483" font-family="Times New Roman,serif" font-size="10.00">[#](64, 32, 32)</text>
</g>
<!-- Parameter195 -->
<g id="node32" class="node"><title>Parameter195</title>
<polygon fill="lightgray" stroke="black" points="702,-1707.5 630,-1707.5 630,-1664.5 702,-1664.5 702,-1707.5"/>
<text text-anchor="middle" x="666" y="-1689.4" font-family="Times New Roman,serif" font-size="12.00">scale</text>
<text text-anchor="middle" x="666" y="-1676.4" font-family="Times New Roman,serif" font-size="12.00">(64,)</text>
</g>
<!-- Parameter195&#45;&gt;Block217 -->
<g id="edge31" class="edge"><title>Parameter195&#45;&gt;Block217</title>
<path fill="none" stroke="black" d="M680.46,-1664.43C692.567,-1647.22 710.259,-1622.05 725.477,-1600.41"/>
<polygon fill="black" stroke="black" points="728.5,-1602.2 731.389,-1592 722.774,-1598.17 728.5,-1602.2"/>
<text text-anchor="middle" x="726.5" y="-1624" font-family="Times New Roman,serif" font-size="10.00">scale</text>
<text text-anchor="middle" x="726.5" y="-1613" font-family="Times New Roman,serif" font-size="10.00">(64,)</text>
</g>
<!-- Parameter196 -->
<g id="node33" class="node"><title>Parameter196</title>
<polygon fill="lightgray" stroke="black" points="792,-1707.5 720,-1707.5 720,-1664.5 792,-1664.5 792,-1707.5"/>
<text text-anchor="middle" x="756" y="-1689.4" font-family="Times New Roman,serif" font-size="12.00">bias</text>
<text text-anchor="middle" x="756" y="-1676.4" font-family="Times New Roman,serif" font-size="12.00">(64,)</text>
</g>
<!-- Parameter196&#45;&gt;Block217 -->
<g id="edge32" class="edge"><title>Parameter196&#45;&gt;Block217</title>
<path fill="none" stroke="black" d="M756,-1664.43C756,-1647.67 756,-1623.38 756,-1602.14"/>
<polygon fill="black" stroke="black" points="759.5,-1602 756,-1592 752.5,-1602 759.5,-1602"/>
<text text-anchor="middle" x="765" y="-1624" font-family="Times New Roman,serif" font-size="10.00">bias</text>
<text text-anchor="middle" x="765" y="-1613" font-family="Times New Roman,serif" font-size="10.00">(64,)</text>
</g>
<!-- Block164 -->
<g id="node34" class="node"><title>Block164</title>
<polygon fill="lightgray" stroke="black" stroke-width="4" points="904,-1722 810,-1722 810,-1650 904,-1650 904,-1722"/>
<text text-anchor="middle" x="857" y="-1682.9" font-family="Times New Roman,serif" font-size="12.00">Convolution</text>
</g>
<!-- Block164&#45;&gt;Block217 -->
<g id="edge33" class="edge"><title>Block164&#45;&gt;Block217</title>
<path fill="none" stroke="black" d="M829.134,-1649.68C817.101,-1634.44 802.907,-1616.45 790.24,-1600.39"/>
<polygon fill="black" stroke="black" points="792.717,-1597.88 783.775,-1592.2 787.222,-1602.22 792.717,-1597.88"/>
<text text-anchor="middle" x="852" y="-1624" font-family="Times New Roman,serif" font-size="10.00">Block164_Output_0</text>
<text text-anchor="middle" x="852" y="-1613" font-family="Times New Roman,serif" font-size="10.00">[#](64, 32, 32)</text>
</g>
<!-- Parameter131 -->
<g id="node35" class="node"><title>Parameter131</title>
<polygon fill="lightgray" stroke="black" points="803,-1837.5 725,-1837.5 725,-1794.5 803,-1794.5 803,-1837.5"/>
<text text-anchor="middle" x="764" y="-1819.4" font-family="Times New Roman,serif" font-size="12.00">W</text>
<text text-anchor="middle" x="764" y="-1806.4" font-family="Times New Roman,serif" font-size="12.00">(64, 32, 5, 5)</text>
</g>
<!-- Parameter131&#45;&gt;Block164 -->
<g id="edge34" class="edge"><title>Parameter131&#45;&gt;Block164</title>
<path fill="none" stroke="black" d="M773.73,-1794.4C781.507,-1778.83 793.195,-1757.26 806,-1740 808.525,-1736.6 811.253,-1733.18 814.088,-1729.82"/>
<polygon fill="black" stroke="black" points="816.895,-1731.93 820.853,-1722.1 811.63,-1727.32 816.895,-1731.93"/>
<text text-anchor="middle" x="829.5" y="-1754" font-family="Times New Roman,serif" font-size="10.00">W</text>
<text text-anchor="middle" x="829.5" y="-1743" font-family="Times New Roman,serif" font-size="10.00">(64, 32, 5, 5)</text>
</g>
<!-- Parameter132 -->
<g id="node36" class="node"><title>Parameter132</title>
<polygon fill="lightgray" stroke="black" points="893,-1837.5 821,-1837.5 821,-1794.5 893,-1794.5 893,-1837.5"/>
<text text-anchor="middle" x="857" y="-1819.4" font-family="Times New Roman,serif" font-size="12.00">b</text>
<text text-anchor="middle" x="857" y="-1806.4" font-family="Times New Roman,serif" font-size="12.00">(64, 1, 1)</text>
</g>
<!-- Parameter132&#45;&gt;Block164 -->
<g id="edge35" class="edge"><title>Parameter132&#45;&gt;Block164</title>
<path fill="none" stroke="black" d="M857,-1794.43C857,-1777.67 857,-1753.38 857,-1732.14"/>
<polygon fill="black" stroke="black" points="860.5,-1732 857,-1722 853.5,-1732 860.5,-1732"/>
<text text-anchor="middle" x="874" y="-1754" font-family="Times New Roman,serif" font-size="10.00">b</text>
<text text-anchor="middle" x="874" y="-1743" font-family="Times New Roman,serif" font-size="10.00">(64, 1, 1)</text>
</g>
<!-- Block110 -->
<g id="node37" class="node"><title>Block110</title>
<polygon fill="lightgray" stroke="black" stroke-width="4" points="1005,-1852 911,-1852 911,-1780 1005,-1780 1005,-1852"/>
<text text-anchor="middle" x="958" y="-1812.9" font-family="Times New Roman,serif" font-size="12.00">BatchNormalization</text>
</g>
<!-- Block110&#45;&gt;Block164 -->
<g id="edge36" class="edge"><title>Block110&#45;&gt;Block164</title>
<path fill="none" stroke="black" d="M930.134,-1779.68C918.101,-1764.44 903.907,-1746.45 891.24,-1730.39"/>
<polygon fill="black" stroke="black" points="893.717,-1727.88 884.775,-1722.2 888.222,-1732.22 893.717,-1727.88"/>
<text text-anchor="middle" x="953" y="-1754" font-family="Times New Roman,serif" font-size="10.00">Block110_Output_0</text>
<text text-anchor="middle" x="953" y="-1743" font-family="Times New Roman,serif" font-size="10.00">[#](32, 64, 64)</text>
</g>
<!-- Parameter88 -->
<g id="node38" class="node"><title>Parameter88</title>
<polygon fill="lightgray" stroke="black" points="904,-1967.5 832,-1967.5 832,-1924.5 904,-1924.5 904,-1967.5"/>
<text text-anchor="middle" x="868" y="-1949.4" font-family="Times New Roman,serif" font-size="12.00">scale</text>
<text text-anchor="middle" x="868" y="-1936.4" font-family="Times New Roman,serif" font-size="12.00">(32,)</text>
</g>
<!-- Parameter88&#45;&gt;Block110 -->
<g id="edge37" class="edge"><title>Parameter88&#45;&gt;Block110</title>
<path fill="none" stroke="black" d="M882.46,-1924.43C894.567,-1907.22 912.259,-1882.05 927.477,-1860.41"/>
<polygon fill="black" stroke="black" points="930.5,-1862.2 933.389,-1852 924.774,-1858.17 930.5,-1862.2"/>
<text text-anchor="middle" x="928.5" y="-1884" font-family="Times New Roman,serif" font-size="10.00">scale</text>
<text text-anchor="middle" x="928.5" y="-1873" font-family="Times New Roman,serif" font-size="10.00">(32,)</text>
</g>
<!-- Parameter89 -->
<g id="node39" class="node"><title>Parameter89</title>
<polygon fill="lightgray" stroke="black" points="994,-1967.5 922,-1967.5 922,-1924.5 994,-1924.5 994,-1967.5"/>
<text text-anchor="middle" x="958" y="-1949.4" font-family="Times New Roman,serif" font-size="12.00">bias</text>
<text text-anchor="middle" x="958" y="-1936.4" font-family="Times New Roman,serif" font-size="12.00">(32,)</text>
</g>
<!-- Parameter89&#45;&gt;Block110 -->
<g id="edge38" class="edge"><title>Parameter89&#45;&gt;Block110</title>
<path fill="none" stroke="black" d="M958,-1924.43C958,-1907.67 958,-1883.38 958,-1862.14"/>
<polygon fill="black" stroke="black" points="961.5,-1862 958,-1852 954.5,-1862 961.5,-1862"/>
<text text-anchor="middle" x="967" y="-1884" font-family="Times New Roman,serif" font-size="10.00">bias</text>
<text text-anchor="middle" x="967" y="-1873" font-family="Times New Roman,serif" font-size="10.00">(32,)</text>
</g>
<!-- Block69 -->
<g id="node40" class="node"><title>Block69</title>
<polygon fill="lightgray" stroke="black" stroke-width="4" points="1106,-1982 1012,-1982 1012,-1910 1106,-1910 1106,-1982"/>
<text text-anchor="middle" x="1059" y="-1942.9" font-family="Times New Roman,serif" font-size="12.00">Convolution</text>
</g>
<!-- Block69&#45;&gt;Block110 -->
<g id="edge39" class="edge"><title>Block69&#45;&gt;Block110</title>
<path fill="none" stroke="black" d="M1031.13,-1909.68C1019.1,-1894.44 1004.91,-1876.45 992.24,-1860.39"/>
<polygon fill="black" stroke="black" points="994.717,-1857.88 985.775,-1852.2 989.222,-1862.22 994.717,-1857.88"/>
<text text-anchor="middle" x="1052" y="-1884" font-family="Times New Roman,serif" font-size="10.00">Block69_Output_0</text>
<text text-anchor="middle" x="1052" y="-1873" font-family="Times New Roman,serif" font-size="10.00">[#](32, 64, 64)</text>
</g>
<!-- Parameter36 -->
<g id="node41" class="node"><title>Parameter36</title>
<polygon fill="lightgray" stroke="black" points="1005,-2097.5 933,-2097.5 933,-2054.5 1005,-2054.5 1005,-2097.5"/>
<text text-anchor="middle" x="969" y="-2079.4" font-family="Times New Roman,serif" font-size="12.00">W</text>
<text text-anchor="middle" x="969" y="-2066.4" font-family="Times New Roman,serif" font-size="12.00">(32, 3, 5, 5)</text>
</g>
<!-- Parameter36&#45;&gt;Block69 -->
<g id="edge40" class="edge"><title>Parameter36&#45;&gt;Block69</title>
<path fill="none" stroke="black" d="M979.418,-2054.25C987.527,-2038.79 999.476,-2017.43 1012,-2000 1014.42,-1996.63 1017.02,-1993.23 1019.71,-1989.86"/>
<polygon fill="black" stroke="black" points="1022.45,-1992.04 1026.11,-1982.09 1017.05,-1987.59 1022.45,-1992.04"/>
<text text-anchor="middle" x="1033.5" y="-2014" font-family="Times New Roman,serif" font-size="10.00">W</text>
<text text-anchor="middle" x="1033.5" y="-2003" font-family="Times New Roman,serif" font-size="10.00">(32, 3, 5, 5)</text>
</g>
<!-- Parameter37 -->
<g id="node42" class="node"><title>Parameter37</title>
<polygon fill="lightgray" stroke="black" points="1095,-2097.5 1023,-2097.5 1023,-2054.5 1095,-2054.5 1095,-2097.5"/>
<text text-anchor="middle" x="1059" y="-2079.4" font-family="Times New Roman,serif" font-size="12.00">b</text>
<text text-anchor="middle" x="1059" y="-2066.4" font-family="Times New Roman,serif" font-size="12.00">(32, 1, 1)</text>
</g>
<!-- Parameter37&#45;&gt;Block69 -->
<g id="edge41" class="edge"><title>Parameter37&#45;&gt;Block69</title>
<path fill="none" stroke="black" d="M1059,-2054.43C1059,-2037.67 1059,-2013.38 1059,-1992.14"/>
<polygon fill="black" stroke="black" points="1062.5,-1992 1059,-1982 1055.5,-1992 1062.5,-1992"/>
<text text-anchor="middle" x="1076" y="-2014" font-family="Times New Roman,serif" font-size="10.00">b</text>
<text text-anchor="middle" x="1076" y="-2003" font-family="Times New Roman,serif" font-size="10.00">(32, 1, 1)</text>
</g>
<!-- Block27 -->
<g id="node43" class="node"><title>Block27</title>
<polygon fill="lightgray" stroke="black" stroke-width="4" points="1207,-2112 1113,-2112 1113,-2040 1207,-2040 1207,-2112"/>
<text text-anchor="middle" x="1160" y="-2072.9" font-family="Times New Roman,serif" font-size="12.00">BatchNormalization</text>
</g>
<!-- Block27&#45;&gt;Block69 -->
<g id="edge42" class="edge"><title>Block27&#45;&gt;Block69</title>
<path fill="none" stroke="black" d="M1132.13,-2039.68C1120.1,-2024.44 1105.91,-2006.45 1093.24,-1990.39"/>
<polygon fill="black" stroke="black" points="1095.72,-1987.88 1086.78,-1982.2 1090.22,-1992.22 1095.72,-1987.88"/>
<text text-anchor="middle" x="1153" y="-2014" font-family="Times New Roman,serif" font-size="10.00">Block27_Output_0</text>
<text text-anchor="middle" x="1153" y="-2003" font-family="Times New Roman,serif" font-size="10.00">[#](3, 128, 128)</text>
</g>
<!-- Parameter5 -->
<g id="node44" class="node"><title>Parameter5</title>
<polygon fill="lightgray" stroke="black" points="1106,-2227.5 1034,-2227.5 1034,-2184.5 1106,-2184.5 1106,-2227.5"/>
<text text-anchor="middle" x="1070" y="-2209.4" font-family="Times New Roman,serif" font-size="12.00">scale</text>
<text text-anchor="middle" x="1070" y="-2196.4" font-family="Times New Roman,serif" font-size="12.00">(3,)</text>
</g>
<!-- Parameter5&#45;&gt;Block27 -->
<g id="edge43" class="edge"><title>Parameter5&#45;&gt;Block27</title>
<path fill="none" stroke="black" d="M1084.46,-2184.43C1096.57,-2167.22 1114.26,-2142.05 1129.48,-2120.41"/>
<polygon fill="black" stroke="black" points="1132.5,-2122.2 1135.39,-2112 1126.77,-2118.17 1132.5,-2122.2"/>
<text text-anchor="middle" x="1130.5" y="-2144" font-family="Times New Roman,serif" font-size="10.00">scale</text>
<text text-anchor="middle" x="1130.5" y="-2133" font-family="Times New Roman,serif" font-size="10.00">(3,)</text>
</g>
<!-- Parameter6 -->
<g id="node45" class="node"><title>Parameter6</title>
<polygon fill="lightgray" stroke="black" points="1196,-2227.5 1124,-2227.5 1124,-2184.5 1196,-2184.5 1196,-2227.5"/>
<text text-anchor="middle" x="1160" y="-2209.4" font-family="Times New Roman,serif" font-size="12.00">bias</text>
<text text-anchor="middle" x="1160" y="-2196.4" font-family="Times New Roman,serif" font-size="12.00">(3,)</text>
</g>
<!-- Parameter6&#45;&gt;Block27 -->
<g id="edge44" class="edge"><title>Parameter6&#45;&gt;Block27</title>
<path fill="none" stroke="black" d="M1160,-2184.43C1160,-2167.67 1160,-2143.38 1160,-2122.14"/>
<polygon fill="black" stroke="black" points="1163.5,-2122 1160,-2112 1156.5,-2122 1163.5,-2122"/>
<text text-anchor="middle" x="1168.5" y="-2144" font-family="Times New Roman,serif" font-size="10.00">bias</text>
<text text-anchor="middle" x="1168.5" y="-2133" font-family="Times New Roman,serif" font-size="10.00">(3,)</text>
</g>
<!-- Input3 -->
<g id="node46" class="node"><title>Input3</title>
<polygon fill="lightgray" stroke="black" stroke-width="4" points="1268.63,-2170.1 1271.7,-2170.3 1274.74,-2170.59 1277.73,-2170.98 1280.66,-2171.47 1283.53,-2172.05 1286.32,-2172.73 1289.02,-2173.5 1291.62,-2174.35 1294.1,-2175.29 1296.47,-2176.32 1298.71,-2177.43 1300.82,-2178.62 1302.78,-2179.88 1304.6,-2181.21 1306.27,-2182.61 1307.78,-2184.08 1309.13,-2185.6 1310.31,-2187.18 1311.34,-2188.82 1312.2,-2190.5 1312.89,-2192.22 1313.43,-2193.98 1313.8,-2195.77 1314.01,-2197.59 1314.07,-2199.44 1313.98,-2201.3 1313.73,-2203.17 1313.35,-2205.06 1312.83,-2206.94 1312.17,-2208.83 1311.39,-2210.7 1310.49,-2212.56 1309.48,-2214.41 1308.36,-2216.23 1307.15,-2218.02 1305.84,-2219.78 1304.44,-2221.5 1302.97,-2223.18 1301.42,-2224.82 1299.81,-2226.4 1298.14,-2227.92 1296.41,-2229.39 1294.64,-2230.79 1292.82,-2232.12 1290.96,-2233.38 1289.07,-2234.57 1287.15,-2235.68 1285.21,-2236.71 1283.25,-2237.65 1281.26,-2238.5 1279.26,-2239.27 1277.25,-2239.95 1275.23,-2240.53 1273.2,-2241.02 1271.16,-2241.41 1269.12,-2241.7 1267.07,-2241.9 1265.02,-2242 1262.98,-2242 1260.93,-2241.9 1258.88,-2241.7 1256.84,-2241.41 1254.8,-2241.02 1252.77,-2240.53 1250.75,-2239.95 1248.74,-2239.27 1246.74,-2238.5 1244.75,-2237.65 1242.79,-2236.71 1240.85,-2235.68 1238.93,-2234.57 1237.04,-2233.38 1235.18,-2232.12 1233.36,-2230.79 1231.59,-2229.39 1229.86,-2227.92 1228.19,-2226.4 1226.58,-2224.82 1225.03,-2223.18 1223.56,-2221.5 1222.16,-2219.78 1220.85,-2218.02 1219.64,-2216.23 1218.52,-2214.41 1217.51,-2212.56 1216.61,-2210.7 1215.83,-2208.83 1215.17,-2206.94 1214.65,-2205.06 1214.27,-2203.17 1214.02,-2201.3 1213.93,-2199.44 1213.99,-2197.59 1214.2,-2195.77 1214.57,-2193.98 1215.11,-2192.22 1215.8,-2190.5 1216.66,-2188.82 1217.69,-2187.18 1218.87,-2185.6 1220.22,-2184.08 1221.73,-2182.61 1223.4,-2181.21 1225.22,-2179.88 1227.18,-2178.62 1229.29,-2177.43 1231.53,-2176.32 1233.9,-2175.29 1236.38,-2174.35 1238.98,-2173.5 1241.68,-2172.73 1244.47,-2172.05 1247.34,-2171.47 1250.27,-2170.98 1253.26,-2170.59 1256.3,-2170.3 1259.37,-2170.1 1262.45,-2170 1265.55,-2170 1268.63,-2170.1"/>
<text text-anchor="middle" x="1264" y="-2209.4" font-family="Times New Roman,serif" font-size="12.00">Input</text>
<text text-anchor="middle" x="1264" y="-2196.4" font-family="Times New Roman,serif" font-size="12.00">[#](3, 128, 128)</text>
</g>
<!-- Input3&#45;&gt;Block27 -->
<g id="edge45" class="edge"><title>Input3&#45;&gt;Block27</title>
<path fill="none" stroke="black" d="M1238.29,-2173.36C1225.25,-2157.31 1209.22,-2137.58 1195.06,-2120.15"/>
<polygon fill="black" stroke="black" points="1197.73,-2117.89 1188.71,-2112.33 1192.3,-2122.3 1197.73,-2117.89"/>
<text text-anchor="middle" x="1247" y="-2144" font-family="Times New Roman,serif" font-size="10.00">Input3</text>
<text text-anchor="middle" x="1247" y="-2133" font-family="Times New Roman,serif" font-size="10.00">[#](3, 128, 128)</text>
</g>
<!-- Input4 -->
<g id="node47" class="node"><title>Input4</title>
<polygon fill="lightgray" stroke="black" stroke-width="4" points="414.633,-480.099 417.701,-480.296 420.737,-480.591 423.729,-480.983 426.664,-481.471 429.532,-482.053 432.32,-482.729 435.018,-483.496 437.615,-484.352 440.103,-485.294 442.471,-486.321 444.713,-487.429 446.819,-488.616 448.784,-489.878 450.602,-491.211 452.268,-492.612 453.777,-494.077 455.126,-495.602 456.314,-497.184 457.338,-498.816 458.198,-500.496 458.895,-502.219 459.428,-503.979 459.799,-505.772 460.012,-507.593 460.07,-509.437 459.975,-511.299 459.733,-513.175 459.348,-515.057 458.826,-516.943 458.172,-518.825 457.392,-520.701 456.493,-522.563 455.481,-524.407 454.364,-526.228 453.147,-528.021 451.837,-529.781 450.442,-531.504 448.968,-533.184 447.421,-534.816 445.809,-536.398 444.136,-537.923 442.41,-539.388 440.635,-540.789 438.817,-542.122 436.961,-543.384 435.072,-544.571 433.154,-545.679 431.21,-546.706 429.245,-547.648 427.261,-548.504 425.262,-549.271 423.251,-549.947 421.228,-550.529 419.197,-551.017 417.16,-551.409 415.118,-551.704 413.072,-551.901 411.024,-552 408.976,-552 406.928,-551.901 404.882,-551.704 402.84,-551.409 400.803,-551.017 398.772,-550.529 396.749,-549.947 394.738,-549.271 392.739,-548.504 390.755,-547.648 388.79,-546.706 386.846,-545.679 384.928,-544.571 383.039,-543.384 381.183,-542.122 379.365,-540.789 377.59,-539.388 375.864,-537.923 374.191,-536.398 372.579,-534.816 371.032,-533.184 369.558,-531.504 368.163,-529.781 366.853,-528.021 365.636,-526.228 364.519,-524.407 363.507,-522.563 362.608,-520.701 361.828,-518.825 361.174,-516.943 360.652,-515.057 360.267,-513.175 360.025,-511.299 359.93,-509.437 359.988,-507.593 360.201,-505.772 360.572,-503.979 361.105,-502.219 361.802,-500.496 362.662,-498.816 363.686,-497.184 364.874,-495.602 366.223,-494.077 367.732,-492.612 369.398,-491.211 371.216,-489.878 373.181,-488.616 375.287,-487.429 377.529,-486.321 379.897,-485.294 382.385,-484.352 384.982,-483.496 387.68,-482.729 390.468,-482.053 393.336,-481.471 396.271,-480.983 399.263,-480.591 402.299,-480.296 405.367,-480.099 408.453,-480 411.547,-480 414.633,-480.099"/>
<text text-anchor="middle" x="410" y="-519.4" font-family="Times New Roman,serif" font-size="12.00">Input</text>
<text text-anchor="middle" x="410" y="-506.4" font-family="Times New Roman,serif" font-size="12.00">[#](1000,)</text>
</g>
<!-- Input4&#45;&gt;Block876 -->
<g id="edge47" class="edge"><title>Input4&#45;&gt;Block876</title>
<path fill="none" stroke="black" d="M418.389,-480.361C421.978,-465.542 426.217,-448.041 430.048,-432.22"/>
<polygon fill="black" stroke="black" points="433.544,-432.654 432.496,-422.111 426.741,-431.007 433.544,-432.654"/>
<text text-anchor="middle" x="446" y="-454" font-family="Times New Roman,serif" font-size="10.00">Input4</text>
<text text-anchor="middle" x="446" y="-443" font-family="Times New Roman,serif" font-size="10.00">[#](1000,)</text>
</g>
<!-- Input4&#45;&gt;Block897 -->
<g id="edge50" class="edge"><title>Input4&#45;&gt;Block897</title>
<path fill="none" stroke="black" d="M391.94,-481.467C383.112,-467.347 371.474,-451.548 358,-440 342.626,-426.824 323.409,-416.065 305.41,-407.767"/>
<polygon fill="black" stroke="black" points="306.696,-404.509 296.136,-403.653 303.858,-410.907 306.696,-404.509"/>
<text text-anchor="middle" x="397" y="-454" font-family="Times New Roman,serif" font-size="10.00">Input4</text>
<text text-anchor="middle" x="397" y="-443" font-family="Times New Roman,serif" font-size="10.00">[#](1000,)</text>
</g>
</g>
</svg>
